<?xml version="1.0" encoding="UTF-8"?>
<svg id="Capa_1" data-name="Capa 1" xmlns="http://www.w3.org/2000/svg" viewBox="0 0 4240.37 2721.11">
  <defs>
    <style>
      .cls-1 {
        fill: #ab76c4;
      }

      .cls-2 {
        fill: #9794ff;
      }

      .cls-3 {
        fill: #91ce80;
      }

      .cls-4 {
        fill: #dddd58;
      }

      .cls-5 {
        fill: #c4c4c4;
      }

      .cls-6 {
        fill: #a0a0a0;
      }

      .cls-7 {
        fill: #5b5b5b;
      }

      .cls-8 {
        fill: #efbd5b;
      }

      .cls-9 {
        fill: #71bbbc;
      }

      .cls-10 {
        fill: #ff7b88;
      }

      .cls-11 {
        fill: none;
        stroke: #000;
        stroke-miterlimit: 10;
        stroke-width: 5px;
      }
    </style>
  </defs>
  <g>
    <path class="cls-11" d="M501.19,1916.77c52.22,50.79,136.21,51.05,188.74.57,50.22-48.26,55.14-125.35,14.76-179.27-2.84-3.8-8.32-4.39-11.88-1.25l-48.81,42.93c-6.64,5.84-8.68,15.16-5.54,23.43,6.4,16.87,2.43,36.77-11.92,49.87-17,15.53-43.5,15.78-60.77.54-19.91-17.56-20.62-47.97-2.14-66.45,13.11-13.11,32.22-16.56,48.48-10.35,8.25,3.15,17.57.98,23.39-5.65l42.81-48.8c3.13-3.56,2.54-9.03-1.26-11.87-53.19-39.77-128.91-35.49-177.25,12.85-53.5,53.5-53.04,140.52,1.38,193.45Z"/>
    <path class="cls-9" d="M1477.94,2083.84c-.09-43.46-20.7-83.52-54.43-109.92-13.77-10.78-29.01-18.33-44.85-22.8v-.06c-2.99-.84-6-1.55-9.02-2.16-.2-.04-.39-.08-.59-.12-1.98-.39-3.97-.75-5.97-1.05-.14-.02-.28-.04-.42-.06-1.85-.27-3.7-.5-5.56-.69-.29-.03-.57-.06-.86-.09-1.88-.18-3.75-.31-5.63-.41-.38-.02-.75-.04-1.13-.05-1.92-.08-3.84-.13-5.75-.13-.15,0-.3,0-.45,0-1.97,0-3.94.07-5.91.17-.12,0-.23,0-.35.02-2.04.11-4.08.27-6.12.48-.15.02-.31.03-.46.05-24.97,2.63-49.33,12.59-69.88,29.86-3.92,3.3-9.77,3.48-13.88.05-47.2-39.45-114.38-41.2-163.18-3-33.73,26.4-54.34,66.46-54.43,109.92l-.28,134.12c-.01,6.08,4.95,11.05,11.03,11.05h67.63c5.76,0,10.46-5.33,10.5-11.07l.93-137.02c.16-24.21,23.93-41.65,45.77-40.85,21.29.78,42.88,18.44,42.99,42.05l.65,135.71c.03,6.89,5.38,11.08,12.29,11.09l67.24.12c5.77.01,10.77-5.43,10.8-11.12l.91-136.59c.11-16.52,11.03-29.92,24.85-36.62.49-.24.99-.46,1.49-.69.25-.11.51-.23.76-.34.3-.13.6-.24.9-.36,3.02-1.21,6.15-2.11,9.3-2.65.01,0,.03,0,.04,0,.62-.11,1.24-.2,1.87-.27.12-.01.23-.03.35-.04.54-.06,1.08-.12,1.63-.16.24-.02.48-.03.72-.05.44-.03.88-.05,1.32-.06.32,0,.65,0,.97-.01.3,0,.6,0,.9,0,.46,0,.92.03,1.37.06.23.01.45.02.68.04.58.04,1.15.09,1.73.16.06,0,.13.01.19.02,5.37.63,10.71,2.28,15.64,4.79.21.11.41.21.62.32.37.2.74.4,1.11.61.5.28.99.57,1.47.86.09.06.19.11.28.17,4.08,2.54,7.79,5.7,10.91,9.37v-.08c5.73,6.7,9.4,15.11,9.46,24.56l.93,137.02c.04,5.74,4.74,11.06,10.5,11.06h67.63c6.08,0,11.04-4.96,11.03-11.04l-.28-134.12Z"/>
    <path class="cls-7" d="M750.32,1936.38v76.31c0,4.99,4.04,9.03,9.03,9.03h8.59c-11.28,20.12-17.71,43.31-17.71,68.01,0,76.93,62.36,139.29,139.29,139.29,76.93,0,139.29-62.36,139.29-139.29,0-24.7-6.44-47.89-17.71-68.01h8.59c4.99,0,9.03-4.04,9.03-9.03v-76.31c0-4.99-4.04-9.03-9.03-9.03h-260.33c-4.99,0-9.03,4.04-9.03,9.03ZM937.31,2089.74c0,26.4-21.4,47.8-47.8,47.8s-47.8-21.4-47.8-47.8c0-26.4,21.4-47.8,47.8-47.8,26.4,0,47.8,21.4,47.8,47.8Z"/>
    <g>
      <path class="cls-1" d="M1896.93,1950.82c-76.93,0-139.29,62.36-139.29,139.29s62.36,139.29,139.29,139.29,139.29-62.36,139.29-139.29-62.36-139.29-139.29-139.29ZM1896.93,2137.91c-26.4,0-47.8-21.4-47.8-47.8s21.4-47.8,47.8-47.8,47.8,21.4,47.8,47.8-21.4,47.8-47.8,47.8Z"/>
      <path class="cls-1" d="M1966.46,1822.3h79.43c7.41,0,13.43,6.02,13.43,13.43v392.06c0,.84-.68,1.52-1.52,1.52h-91.34c-.84,0-1.52-.68-1.52-1.52v-403.97c0-.84.68-1.52,1.52-1.52Z"/>
    </g>
    <path d="M516.24,2229.03l96.43-.2c40.83-.09,78.65-18.28,104.98-48.45.41-1.26,1.05-2.46,1.95-3.54,19.43-23.25,29.7-51.35,30.57-79.71.02-.79.05-1.58.05-2.37,0-.12,0-.25,0-.37,0-.07,0-.14,0-.21,0-1.97-.07-3.94-.17-5.91,0-.12,0-.23-.02-.35-.11-2.04-.27-4.08-.48-6.12-.02-.15-.03-.31-.05-.46-2.63-24.97-12.59-49.33-29.86-69.88-.96-1.15-1.63-2.46-2.04-3.84-26.32-30.13-64.12-48.31-104.93-48.39l-98.4-.21-35.59.17c-6.89.03-11.08,5.38-11.09,12.29l-.09,48.59v17.54c0,5.76,5.33,10.46,11.06,10.5l137.02.93c24.04.16,41.4,23.6,40.86,45.31,0,.1,0,.19,0,.29,0,.3,0,.6,0,.9,0,.46-.03.92-.06,1.37-.01.23-.02.45-.04.68-.04.58-.09,1.15-.16,1.73,0,.06-.01.13-.02.19-.63,5.37-2.28,10.71-4.79,15.64-.11.21-.21.41-.32.62-.2.37-.4.74-.61,1.11-.28.5-.57.99-.86,1.47-.06.09-.11.19-.17.28-2.54,4.08-5.7,7.79-9.37,10.91h.08c-6.7,5.73-15.11,9.4-24.56,9.46l-137.02.93c-4.92.03-9.52,3.5-10.74,8.11-.15.86-.23,1.75-.23,2.68l-.1,54.64v12.7c0,.35.02.7.05,1.05.65,5.27,5.74,9.62,11.05,9.65l37.64.25Z"/>
    <path d="M978.54,1657.34l-96.43.2c-40.83.09-78.65,18.28-104.98,48.45-.41,1.26-1.05,2.46-1.95,3.54-19.43,23.25-29.7,51.35-30.57,79.71-.02.79-.05,1.58-.05,2.37,0,.12,0,.25,0,.37,0,.07,0,.14,0,.21,0,1.97.07,3.94.17,5.91,0,.12,0,.23.02.35.11,2.04.27,4.08.48,6.12.02.15.03.31.05.46,2.63,24.97,12.59,49.33,29.86,69.88.96,1.15,1.63,2.46,2.04,3.84,26.32,30.13,64.12,48.31,104.93,48.39l98.4.21,35.59-.17c6.89-.03,11.08-5.38,11.09-12.29l.09-48.59v-17.54c0-5.76-5.33-10.46-11.06-10.5l-137.02-.93c-24.04-.16-41.4-23.6-40.86-45.31,0-.1,0-.19,0-.29,0-.3,0-.6,0-.9,0-.46.03-.92.06-1.37.01-.23.02-.45.04-.68.04-.58.09-1.15.16-1.73,0-.06.01-.13.02-.19.63-5.37,2.28-10.71,4.79-15.64.11-.21.21-.41.32-.62.2-.37.4-.74.61-1.11.28-.5.57-.99.86-1.47.06-.09.11-.19.17-.28,2.54-4.08,5.7-7.79,9.37-10.91h-.08c6.7-5.73,15.11-9.4,24.56-9.46l137.02-.93c4.92-.03,9.52-3.5,10.74-8.11.15-.86.23-1.75.23-2.68l.1-54.64v-12.7c0-.35-.02-.7-.05-1.05-.65-5.27-5.74-9.62-11.05-9.65l-37.64-.25Z"/>
    <path class="cls-5" d="M1068.59,1927.35l96.43-.2c40.83-.09,78.65-18.28,104.98-48.45.41-1.26,1.05-2.46,1.95-3.54,19.43-23.25,29.7-51.35,30.57-79.71.02-.79.05-1.58.05-2.37,0-.12,0-.25,0-.37,0-.07,0-.14,0-.21,0-1.97-.07-3.94-.17-5.91,0-.12,0-.23-.02-.35-.11-2.04-.27-4.08-.48-6.12-.02-.15-.03-.31-.05-.46-2.63-24.97-12.59-49.33-29.86-69.88-.96-1.15-1.63-2.46-2.04-3.84-26.32-30.13-64.12-48.31-104.93-48.39l-98.4-.21-35.59.17c-6.89.03-11.08,5.38-11.09,12.29l-.09,48.59v17.54c0,5.76,5.33,10.46,11.06,10.5l137.02.93c24.04.16,41.4,23.6,40.86,45.31,0,.1,0,.19,0,.29,0,.3,0,.6,0,.9,0,.46-.03.92-.06,1.37-.01.23-.02.45-.04.68-.04.58-.09,1.15-.16,1.73,0,.06-.01.13-.02.19-.63,5.37-2.28,10.71-4.79,15.64-.11.21-.21.41-.32.62-.2.37-.4.74-.61,1.11-.28.5-.57.99-.86,1.47-.06.09-.11.19-.17.28-2.54,4.08-5.7,7.79-9.37,10.91h.08c-6.7,5.73-15.11,9.4-24.56,9.46l-137.02.93c-4.92.03-9.52,3.5-10.74,8.11-.15.86-.23,1.75-.23,2.68l-.1,54.64v12.7c0,.35.02.7.05,1.05.65,5.27,5.74,9.62,11.05,9.65l37.64.25Z"/>
    <path class="cls-7" d="M467.78,1545.97c.09,43.46,20.7,83.52,54.43,109.92,13.77,10.78,29.01,18.33,44.85,22.8v.06c2.99.84,6,1.55,9.02,2.16.2.04.39.08.59.12,1.98.39,3.97.75,5.97,1.05.14.02.28.04.42.06,1.85.27,3.7.5,5.56.69.29.03.57.06.86.09,1.88.18,3.75.31,5.63.41.38.02.75.04,1.13.05,1.92.08,3.84.13,5.75.13.15,0,.3,0,.45,0,1.97,0,3.94-.07,5.91-.17.12,0,.23,0,.35-.02,2.04-.11,4.08-.27,6.12-.48.15-.02.31-.03.46-.05,24.97-2.63,49.33-12.59,69.88-29.86,3.92-3.3,9.77-3.48,13.88-.05,47.2,39.45,114.38,41.2,163.18,3,33.73-26.4,54.34-66.46,54.43-109.92l.28-134.12c.01-6.08-4.95-11.05-11.03-11.05h-67.63c-5.76,0-10.46,5.33-10.5,11.07l-.93,137.02c-.16,24.21-23.93,41.65-45.77,40.85-21.29-.78-42.88-18.44-42.99-42.05l-.65-135.71c-.03-6.89-5.38-11.08-12.29-11.09l-67.24-.12c-5.77-.01-10.77,5.43-10.8,11.12l-.91,136.59c-.11,16.52-11.03,29.92-24.85,36.62-.49.24-.99.46-1.49.69-.25.11-.51.23-.76.34-.3.13-.6.24-.9.36-3.02,1.21-6.15,2.11-9.3,2.65-.01,0-.03,0-.04,0-.62.11-1.24.2-1.87.27-.12.01-.23.03-.35.04-.54.06-1.08.12-1.63.16-.24.02-.48.03-.72.05-.44.03-.88.05-1.32.06-.32,0-.65,0-.97.01-.3,0-.6,0-.9,0-.46,0-.92-.03-1.37-.06-.23-.01-.45-.02-.68-.04-.58-.04-1.15-.09-1.73-.16-.06,0-.13-.01-.19-.02-5.37-.63-10.71-2.28-15.64-4.79-.21-.11-.41-.21-.62-.32-.37-.2-.74-.4-1.11-.61-.5-.28-.99-.57-1.47-.86-.09-.06-.19-.11-.28-.17-4.08-2.54-7.79-5.7-10.91-9.37v.08c-5.73-6.7-9.4-15.11-9.46-24.56l-.93-137.02c-.04-5.74-4.74-11.06-10.5-11.06h-67.63c-6.08,0-11.04,4.96-11.03,11.04l.28,134.12Z"/>
    <g>
      <path d="M1042.84,1520.86c0,75.38,61.11,136.48,136.48,136.48,75.38,0,136.48-61.11,136.48-136.48,0-75.38-61.11-136.48-136.48-136.48-75.38,0-136.48,61.11-136.48,136.48ZM1226.16,1520.86c0,25.87-20.97,46.84-46.84,46.84-25.87,0-46.84-20.97-46.84-46.84,0-25.87,20.97-46.84,46.84-46.84,25.87,0,46.84,20.97,46.84,46.84Z"/>
      <path d="M1071.56,1208.59h77.82c7.26,0,13.16,5.9,13.16,13.16v384.15c0,.82-.67,1.49-1.49,1.49h-89.5c-.82,0-1.49-.67-1.49-1.49v-395.82c0-.82.67-1.49,1.49-1.49Z" transform="translate(-291.67 2524.3) rotate(-90)"/>
    </g>
    <path class="cls-6" d="M1383.29,1760.13c-49.45,50.85-49.71,132.64-.56,183.78,47,48.9,122.07,53.69,174.56,14.37,3.7-2.77,4.27-8.1,1.22-11.57l-41.81-47.53c-5.69-6.46-14.77-8.45-22.81-5.4-16.43,6.23-35.8,2.36-48.56-11.6-15.12-16.56-15.36-42.36-.53-59.18,17.1-19.39,46.71-20.08,64.71-2.08,12.77,12.77,16.12,31.37,10.08,47.21-3.06,8.03-.95,17.11,5.51,22.77l47.52,41.69c3.47,3.04,8.8,2.47,11.56-1.23,38.73-51.8,34.56-125.52-12.51-172.6-52.1-52.1-136.84-51.65-188.37,1.34Z"/>
    <path d="M2059.54,1545.86c-.09-43.46-20.7-83.52-54.43-109.92-13.77-10.78-29.01-18.33-44.85-22.8v-.06c-2.99-.84-6-1.55-9.02-2.16-.2-.04-.39-.08-.59-.12-1.98-.39-3.97-.75-5.97-1.05-.14-.02-.28-.04-.42-.06-1.85-.27-3.7-.5-5.56-.69-.29-.03-.57-.06-.86-.09-1.88-.18-3.75-.31-5.63-.41-.38-.02-.75-.04-1.13-.05-1.92-.08-3.84-.13-5.75-.13-.15,0-.3,0-.45,0-1.97,0-3.94.07-5.91.17-.12,0-.23,0-.35.02-2.04.11-4.08.27-6.12.48-.15.02-.31.03-.46.05-24.97,2.63-49.33,12.59-69.88,29.86-3.92,3.3-9.77,3.48-13.88.05-47.2-39.45-114.38-41.2-163.18-3-33.73,26.4-54.34,66.46-54.43,109.92l-.28,134.12c-.01,6.08,4.95,11.05,11.03,11.05h67.63c5.76,0,10.46-5.33,10.5-11.07l.93-137.02c.16-24.21,23.93-41.65,45.77-40.85,21.29.78,42.88,18.44,42.99,42.05l.65,135.71c.03,6.89,5.38,11.08,12.29,11.09l67.24.12c5.77.01,10.77-5.43,10.8-11.12l.91-136.59c.11-16.52,11.03-29.92,24.85-36.62.49-.24.99-.46,1.49-.69.25-.11.51-.23.76-.34.3-.13.6-.24.9-.36,3.02-1.21,6.15-2.11,9.3-2.65.01,0,.03,0,.04,0,.62-.11,1.24-.2,1.87-.27.12-.01.23-.03.35-.04.54-.06,1.08-.12,1.63-.16.24-.02.48-.03.72-.05.44-.03.88-.05,1.32-.06.32,0,.65,0,.97-.01.3,0,.6,0,.9,0,.46,0,.92.03,1.37.06.23.01.45.02.68.04.58.04,1.15.09,1.73.16.06,0,.13.01.19.02,5.37.63,10.71,2.28,15.64,4.79.21.11.41.21.62.32.37.2.74.4,1.11.61.5.28.99.57,1.47.86.09.06.19.11.28.17,4.08,2.54,7.79,5.7,10.91,9.37v-.08c5.73,6.7,9.4,15.11,9.46,24.56l.93,137.02c.04,5.74,4.74,11.06,10.5,11.06h67.63c6.08,0,11.04-4.96,11.03-11.04l-.28-134.12Z"/>
    <path class="cls-11" d="M1529.69,1155.26c58.58,56.97,152.79,57.26,211.71.64,56.33-54.14,61.85-140.61,16.56-201.09-3.19-4.26-9.33-4.92-13.32-1.41l-54.75,48.16c-7.45,6.55-9.73,17.01-6.22,26.28,7.18,18.92,2.72,41.24-13.37,55.94-19.07,17.42-48.8,17.7-68.17.61-22.33-19.7-23.13-53.81-2.4-74.54,14.7-14.7,36.14-18.57,54.39-11.61,9.25,3.53,19.71,1.1,26.23-6.34l48.02-54.74c3.51-4,2.84-10.13-1.41-13.32-59.67-44.61-144.59-39.81-198.82,14.42-60.01,60.01-59.49,157.63,1.55,216.99Z"/>
    <path class="cls-11" d="M1978.66,1691.06h-331.09c-2.97,0-5.37,2.4-5.37,5.37v78.28c0,2.97,2.4,5.37,5.37,5.37h11.27c-10.64,18.98-16.73,40.85-16.73,64.15,0,72.57,58.83,131.39,131.39,131.39s131.39-58.83,131.39-131.39c0-23.3-6.09-45.17-16.73-64.15h132.6c2.97,0,5.37-2.4,5.37-5.37v-36.19c0-26.21-21.25-47.46-47.46-47.46ZM1773.5,1889.32c-24.9,0-45.09-20.19-45.09-45.09s20.19-45.09,45.09-45.09,45.09,20.19,45.09,45.09-20.19,45.09-45.09,45.09Z"/>
    <path d="M1365.96,1720.05l99.24-.21c42.02-.09,80.94-18.81,108.03-49.86.42-1.29,1.08-2.53,2.01-3.64,20-23.93,30.56-52.84,31.46-82.03.02-.81.05-1.62.05-2.44,0-.13,0-.25,0-.38,0-.07,0-.15,0-.22-.01-2.03-.07-4.06-.17-6.08,0-.12,0-.24-.02-.36-.11-2.1-.28-4.2-.5-6.29-.02-.16-.03-.32-.05-.47-2.71-25.7-12.95-50.77-30.72-71.91-.99-1.18-1.67-2.53-2.1-3.96-27.08-31.01-65.98-49.71-107.97-49.8l-101.26-.21-36.62.17c-7.09.03-11.4,5.54-11.41,12.65l-.09,50v18.05c0,5.92,5.48,10.76,11.39,10.8l141,.96c24.74.17,42.6,24.29,42.04,46.63,0,.1,0,.2,0,.3,0,.31,0,.62,0,.93,0,.47-.03.94-.06,1.41-.01.23-.02.47-.04.7-.04.59-.09,1.19-.16,1.78,0,.07-.01.13-.02.19-.65,5.52-2.35,11.02-4.93,16.1-.11.21-.22.42-.33.64-.2.38-.41.77-.62,1.15-.29.51-.58,1.02-.89,1.52-.06.1-.12.19-.17.29-2.62,4.2-5.87,8.02-9.64,11.23h.08c-6.9,5.9-15.55,9.67-25.27,9.74l-141,.96c-5.06.03-9.8,3.6-11.05,8.34-.15.88-.24,1.8-.24,2.75l-.1,56.23v13.07c0,.36.02.72.05,1.08.67,5.42,5.9,9.9,11.37,9.93l38.73.26Z"/>
    <path class="cls-3" d="M2061.6,1101.69l-.2-96.43c-.09-40.83-18.28-78.65-48.45-104.98-1.26-.41-2.46-1.05-3.54-1.95-23.25-19.43-51.35-29.7-79.71-30.57-.79-.02-1.58-.05-2.37-.05-.12,0-.25,0-.37,0-.07,0-.14,0-.21,0-1.97,0-3.94.07-5.91.17-.12,0-.23,0-.35.02-2.04.11-4.08.27-6.12.48-.15.02-.31.03-.46.05-24.97,2.63-49.33,12.59-69.88,29.86-1.15.96-2.46,1.63-3.84,2.04-30.13,26.32-48.31,64.12-48.39,104.93l-.21,98.4.17,35.59c.03,6.89,5.38,11.08,12.29,11.09l48.59.09h17.54c5.76,0,10.46-5.33,10.5-11.06l.93-137.02c.16-24.04,23.6-41.4,45.31-40.86.1,0,.19,0,.29,0,.3,0,.6,0,.9,0,.46,0,.92.03,1.37.06.23.01.45.02.68.04.58.04,1.15.09,1.73.16.06,0,.13.01.19.02,5.37.63,10.71,2.28,15.64,4.79.21.11.41.21.62.32.37.2.74.4,1.11.61.5.28.99.57,1.47.86.09.06.19.11.28.17,4.08,2.54,7.79,5.7,10.91,9.37v-.08c5.73,6.7,9.4,15.11,9.46,24.56l.93,137.02c.03,4.92,3.5,9.52,8.11,10.74.86.15,1.75.23,2.68.23l54.64.1h12.7c.35,0,.7-.02,1.05-.05,5.27-.65,9.62-5.74,9.65-11.05l.25-37.64Z"/>
    <path d="M1791.6,1181.81l.2,96.43c.09,40.83,18.28,78.65,48.45,104.98,1.26.41,2.46,1.05,3.54,1.95,23.25,19.43,51.35,29.7,79.71,30.57.79.02,1.58.05,2.37.05.12,0,.25,0,.37,0,.07,0,.14,0,.21,0,1.97,0,3.94-.07,5.91-.17.12,0,.23,0,.35-.02,2.04-.11,4.08-.27,6.12-.48.15-.02.31-.03.46-.05,24.97-2.63,49.33-12.59,69.88-29.86,1.15-.96,2.46-1.63,3.84-2.04,30.13-26.32,48.31-64.12,48.39-104.93l.21-98.4-.17-35.59c-.03-6.89-5.38-11.08-12.29-11.09l-48.59-.09h-17.54c-5.76,0-10.46,5.33-10.5,11.06l-.93,137.02c-.16,24.04-23.6,41.4-45.31,40.86-.1,0-.19,0-.29,0-.3,0-.6,0-.9,0-.46,0-.92-.03-1.37-.06-.23-.01-.45-.02-.68-.04-.58-.04-1.15-.09-1.73-.16-.06,0-.13-.01-.19-.02-5.37-.63-10.71-2.28-15.64-4.79-.21-.11-.41-.21-.62-.32-.37-.2-.74-.4-1.11-.61-.5-.28-.99-.57-1.47-.86-.09-.06-.19-.11-.28-.17-4.08-2.54-7.79-5.7-10.91-9.37v.08c-5.73-6.7-9.4-15.11-9.46-24.56l-.93-137.02c-.03-4.92-3.5-9.52-8.11-10.74-.86-.15-1.75-.23-2.68-.23l-54.64-.1h-12.7c-.35,0-.7.02-1.05.05-5.27.65-9.62,5.74-9.65,11.05l-.25,37.64Z"/>
    <path d="M793.3,1382.38l96.43-.2c40.83-.09,78.65-18.28,104.98-48.45.41-1.26,1.05-2.46,1.95-3.54,19.43-23.25,29.7-51.35,30.57-79.71.02-.79.05-1.58.05-2.37,0-.12,0-.25,0-.37,0-.07,0-.14,0-.21,0-1.97-.07-3.94-.17-5.91,0-.12,0-.23-.02-.35-.11-2.04-.27-4.08-.48-6.12-.02-.15-.03-.31-.05-.46-2.63-24.97-12.59-49.33-29.86-69.88-.96-1.15-1.63-2.46-2.04-3.84-26.32-30.13-64.12-48.31-104.93-48.39l-98.4-.21-35.59.17c-6.89.03-11.08,5.38-11.09,12.29l-.09,48.59v17.54c0,5.76,5.33,10.46,11.06,10.5l137.02.93c24.04.16,41.4,23.6,40.86,45.31,0,.1,0,.19,0,.29,0,.3,0,.6,0,.9,0,.46-.03.92-.06,1.37-.01.23-.02.45-.04.68-.04.58-.09,1.15-.16,1.73,0,.06-.01.13-.02.19-.63,5.37-2.28,10.71-4.79,15.64-.11.21-.21.41-.32.62-.2.37-.4.74-.61,1.11-.28.5-.57.99-.86,1.47-.06.09-.11.19-.17.28-2.54,4.08-5.7,7.79-9.37,10.91h.08c-6.7,5.73-15.11,9.4-24.56,9.46l-137.02.93c-4.92.03-9.52,3.5-10.74,8.11-.15.86-.23,1.75-.23,2.68l-.1,54.64v12.7c0,.35.02.7.05,1.05.65,5.27,5.74,9.62,11.05,9.65l37.64.25Z"/>
    <path d="M1288.83,906.53c-43.46.09-83.52,20.7-109.92,54.43-10.78,13.77-18.33,29.01-22.8,44.85h-.06c-.84,2.99-1.55,6-2.16,9.02-.04.2-.08.39-.12.59-.39,1.98-.75,3.97-1.05,5.97-.02.14-.04.28-.06.42-.27,1.85-.5,3.7-.69,5.56-.03.29-.06.57-.09.86-.18,1.88-.31,3.75-.41,5.63-.02.38-.04.75-.05,1.13-.08,1.92-.13,3.84-.13,5.75,0,.15,0,.3,0,.45,0,1.97.07,3.94.17,5.91,0,.12,0,.23.02.35.11,2.04.27,4.08.48,6.12.02.15.03.31.05.46,2.63,24.97,12.59,49.33,29.86,69.88,3.3,3.92,3.48,9.77.05,13.88-39.45,47.2-41.2,114.38-3,163.18,26.4,33.73,66.46,54.34,109.92,54.43l134.12.28c6.08.01,11.05-4.95,11.05-11.03v-67.63c0-5.76-5.33-10.46-11.07-10.5l-137.02-.93c-24.21-.16-41.65-23.93-40.85-45.77.78-21.29,18.44-42.88,42.05-42.99l135.71-.65c6.89-.03,11.08-5.38,11.09-12.29l.12-67.24c.01-5.77-5.43-10.77-11.12-10.8l-136.59-.91c-16.52-.11-29.92-11.03-36.62-24.85-.24-.49-.46-.99-.69-1.49-.11-.25-.23-.51-.34-.76-.13-.3-.24-.6-.36-.9-1.21-3.02-2.11-6.15-2.65-9.3,0-.01,0-.03,0-.04-.11-.62-.2-1.24-.27-1.87-.01-.12-.03-.23-.04-.35-.06-.54-.12-1.08-.16-1.63-.02-.24-.03-.48-.05-.72-.03-.44-.05-.88-.06-1.32,0-.32,0-.65-.01-.97,0-.3,0-.6,0-.9,0-.46.03-.92.06-1.37.01-.23.02-.45.04-.68.04-.58.09-1.15.16-1.73,0-.06.01-.13.02-.19.63-5.37,2.28-10.71,4.79-15.64.11-.21.21-.41.32-.62.2-.37.4-.74.61-1.11.28-.5.57-.99.86-1.47.06-.09.11-.19.17-.28,2.54-4.08,5.7-7.79,9.37-10.91h-.08c6.7-5.73,15.11-9.4,24.56-9.46l137.02-.93c5.74-.04,11.06-4.74,11.06-10.5v-67.63c0-6.08-4.96-11.04-11.04-11.03l-134.12.28Z"/>
    <g>
      <path class="cls-7" d="M1128.56,992.04c0-74.54-60.42-134.96-134.96-134.96-74.54,0-134.96,60.42-134.96,134.96,0,74.54,60.42,134.96,134.96,134.96s134.96-60.42,134.96-134.96ZM1039.91,992.04c0,25.58-20.74,46.31-46.31,46.31-25.58,0-46.31-20.74-46.31-46.31,0-25.58,20.74-46.31,46.31-46.31,25.58,0,46.31,20.74,46.31,46.31Z"/>
      <path class="cls-7" d="M1060.97,857.17h88.5c.81,0,1.47.66,1.47,1.47v379.87c0,7.18-5.83,13.01-13.01,13.01h-76.96c-.81,0-1.47-.66-1.47-1.47v-391.41c0-.81.66-1.47,1.47-1.47Z"/>
    </g>
    <path class="cls-7" d="M1788.23,635.14l.2,96.43c.09,40.83,18.28,78.65,48.45,104.98,1.26.41,2.46,1.05,3.54,1.95,23.25,19.43,51.35,29.7,79.71,30.57.79.02,1.58.05,2.37.05.12,0,.25,0,.37,0,.07,0,.14,0,.21,0,1.97,0,3.94-.07,5.91-.17.12,0,.23,0,.35-.02,2.04-.11,4.08-.27,6.12-.48.15-.02.31-.03.46-.05,24.97-2.63,49.33-12.59,69.88-29.86,1.15-.96,2.46-1.63,3.84-2.04,30.13-26.32,48.31-64.12,48.39-104.93l.21-98.4-.17-35.59c-.03-6.89-5.38-11.08-12.29-11.09l-48.59-.09h-17.54c-5.76,0-10.46,5.33-10.5,11.06l-.93,137.02c-.16,24.04-23.6,41.4-45.31,40.86-.1,0-.19,0-.29,0-.3,0-.6,0-.9,0-.46,0-.92-.03-1.37-.06-.23-.01-.45-.02-.68-.04-.58-.04-1.15-.09-1.73-.16-.06,0-.13-.01-.19-.02-5.37-.63-10.71-2.28-15.64-4.79-.21-.11-.41-.21-.62-.32-.37-.2-.74-.4-1.11-.61-.5-.28-.99-.57-1.47-.86-.09-.06-.19-.11-.28-.17-4.08-2.54-7.79-5.7-10.91-9.37v.08c-5.73-6.7-9.4-15.11-9.46-24.56l-.93-137.02c-.03-4.92-3.5-9.52-8.11-10.74-.86-.15-1.75-.23-2.68-.23l-54.64-.1h-12.7c-.35,0-.7.02-1.05.05-5.27.65-9.62,5.74-9.65,11.05l-.25,37.64Z"/>
    <path class="cls-10" d="M467.98,425.82c1.04,74.64,61.72,135.7,136.35,137.19,71.36,1.42,130.79-50.88,140.61-119.21.69-4.81-2.85-9.21-7.7-9.52l-66.48-4.25c-9.04-.58-17.28,4.7-21,12.96-7.59,16.86-24.89,28.4-44.77,27.5-23.57-1.07-42.96-20.09-44.43-43.64-1.7-27.15,19.82-49.71,46.61-49.71,19,0,35.34,11.35,42.64,27.63,3.7,8.26,12.02,13.44,21.05,12.85l66.39-4.34c4.85-.32,8.38-4.71,7.69-9.52-9.73-67.37-67.7-119.13-137.76-119.13-77.54,0-140.27,63.4-139.18,141.18Z"/>
    <path class="cls-11" d="M793.3,561.03l96.43-.2c40.83-.09,78.65-18.28,104.98-48.45.41-1.26,1.05-2.46,1.95-3.54,19.43-23.25,29.7-51.35,30.57-79.71.02-.79.05-1.58.05-2.37,0-.12,0-.25,0-.37,0-.07,0-.14,0-.21,0-1.97-.07-3.94-.17-5.91,0-.12,0-.23-.02-.35-.11-2.04-.27-4.08-.48-6.12-.02-.15-.03-.31-.05-.46-2.63-24.97-12.59-49.33-29.86-69.88-.96-1.15-1.63-2.46-2.04-3.84-26.32-30.13-64.12-48.31-104.93-48.39l-98.4-.21-35.59.17c-6.89.03-11.08,5.38-11.09,12.29l-.09,48.59v17.54c0,5.76,5.33,10.46,11.06,10.5l137.02.93c24.04.16,41.4,23.6,40.86,45.31,0,.1,0,.19,0,.29,0,.3,0,.6,0,.9,0,.46-.03.92-.06,1.37-.01.23-.02.45-.04.68-.04.58-.09,1.15-.16,1.73,0,.06-.01.13-.02.19-.63,5.37-2.28,10.71-4.79,15.64-.11.21-.21.41-.32.62-.2.37-.4.74-.61,1.11-.28.5-.57.99-.86,1.47-.06.09-.11.19-.17.28-2.54,4.08-5.7,7.79-9.37,10.91h.08c-6.7,5.73-15.11,9.4-24.56,9.46l-137.02.93c-4.92.03-9.52,3.5-10.74,8.11-.15.86-.23,1.75-.23,2.68l-.1,54.64v12.7c0,.35.02.7.05,1.05.65,5.27,5.74,9.62,11.05,9.65l37.64.25Z"/>
    <path d="M1475.81,422.22c-.09-43.46-20.7-83.52-54.43-109.92-13.77-10.78-29.01-18.33-44.85-22.8v-.06c-2.99-.84-6-1.55-9.02-2.16-.2-.04-.39-.08-.59-.12-1.98-.39-3.97-.75-5.97-1.05-.14-.02-.28-.04-.42-.06-1.85-.27-3.7-.5-5.56-.69-.29-.03-.57-.06-.86-.09-1.88-.18-3.75-.31-5.63-.41-.38-.02-.75-.04-1.13-.05-1.92-.08-3.84-.13-5.75-.13-.15,0-.3,0-.45,0-1.97,0-3.94.07-5.91.17-.12,0-.23,0-.35.02-2.04.11-4.08.27-6.12.48-.15.02-.31.03-.46.05-24.97,2.63-49.33,12.59-69.88,29.86-3.92,3.3-9.77,3.48-13.88.05-47.2-39.45-114.38-41.2-163.18-3-33.73,26.4-54.34,66.46-54.43,109.92l-.28,134.12c-.01,6.08,4.95,11.05,11.03,11.05h67.63c5.76,0,10.46-5.33,10.5-11.07l.93-137.02c.16-24.21,23.93-41.65,45.77-40.85,21.29.78,42.88,18.44,42.99,42.05l.65,135.71c.03,6.89,5.38,11.08,12.29,11.09l67.24.12c5.77.01,10.77-5.43,10.8-11.12l.91-136.59c.11-16.52,11.03-29.92,24.85-36.62.49-.24.99-.46,1.49-.69.25-.11.51-.23.76-.34.3-.13.6-.24.9-.36,3.02-1.21,6.15-2.11,9.3-2.65.01,0,.03,0,.04,0,.62-.11,1.24-.2,1.87-.27.12-.01.23-.03.35-.04.54-.06,1.08-.12,1.63-.16.24-.02.48-.03.72-.05.44-.03.88-.05,1.32-.06.32,0,.65,0,.97-.01.3,0,.6,0,.9,0,.46,0,.92.03,1.37.06.23.01.45.02.68.04.58.04,1.15.09,1.73.16.06,0,.13.01.19.02,5.37.63,10.71,2.28,15.64,4.79.21.11.41.21.62.32.37.2.74.4,1.11.61.5.28.99.57,1.47.86.09.06.19.11.28.17,4.08,2.54,7.79,5.7,10.91,9.37v-.08c5.73,6.7,9.4,15.11,9.46,24.56l.93,137.02c.04,5.74,4.74,11.06,10.5,11.06h67.63c6.08,0,11.04-4.96,11.03-11.04l-.28-134.12Z"/>
    <path class="cls-5" d="M2002,316.39l-101.06.2c-42.79.09-82.42,18.28-110.01,48.45-.43,1.26-1.1,2.46-2.04,3.54-20.37,23.25-31.12,51.35-32.03,79.71-.02.79-.06,1.58-.06,2.37,0,.12,0,.25,0,.37,0,.07,0,.14,0,.21.01,1.97.07,3.94.17,5.91,0,.12,0,.23.02.35.11,2.04.29,4.08.5,6.12.02.15.03.31.05.46,2.76,24.97,13.19,49.33,31.29,69.88,1.01,1.15,1.7,2.46,2.14,3.84,27.58,30.13,67.2,48.31,109.96,48.39l103.12.21,37.3-.17c7.22-.03,11.61-5.38,11.62-12.29l.09-48.59v-17.54c0-5.76-5.58-10.46-11.59-10.5l-143.58-.93c-25.2-.16-43.38-23.6-42.81-45.31,0-.1,0-.19,0-.29,0-.3,0-.6,0-.9.01-.46.03-.92.06-1.37.01-.23.02-.45.04-.68.04-.58.1-1.15.16-1.73,0-.06.02-.13.02-.19.66-5.37,2.39-10.71,5.02-15.64.11-.21.22-.41.34-.62.21-.37.42-.74.63-1.11.29-.5.59-.99.9-1.47.06-.09.12-.19.18-.28,2.66-4.08,5.97-7.79,9.82-10.91h-.09c7.02-5.73,15.83-9.4,25.73-9.46l143.58-.93c5.15-.03,9.98-3.5,11.25-8.11.15-.86.24-1.75.24-2.68l.1-54.64v-12.7c0-.35-.02-.7-.05-1.05-.68-5.27-6.01-9.62-11.58-9.65l-39.44-.25Z"/>
    <path class="cls-4" d="M1375.55,864.07c52.05-53.52,52.32-139.6.59-193.42-49.46-51.46-128.47-56.51-183.72-15.13-3.89,2.91-4.5,8.52-1.28,12.17l44,50.02c5.98,6.8,15.54,8.89,24.01,5.68,17.29-6.56,37.68-2.49,51.11,12.21,15.91,17.42,16.17,44.58.56,62.28-18,20.4-49.16,21.13-68.1,2.19-13.43-13.43-16.97-33.02-10.61-49.69,3.22-8.45,1-18-5.79-23.97l-50.01-43.88c-3.65-3.2-9.26-2.6-12.17,1.29-40.76,54.51-36.37,132.11,13.17,181.65,54.83,54.83,144.01,54.36,198.25-1.41Z"/>
    <g>
      <path class="cls-6" d="M858.64,721.74c0,74.75,60.59,135.34,135.34,135.34,74.75,0,135.34-60.59,135.34-135.34,0-74.75-60.59-135.34-135.34-135.34-74.75,0-135.34,60.59-135.34,135.34ZM1040.42,721.74c0,25.65-20.79,46.44-46.44,46.44-25.65,0-46.44-20.79-46.44-46.44,0-25.65,20.79-46.44,46.44-46.44,25.65,0,46.44,20.79,46.44,46.44Z"/>
      <path class="cls-6" d="M887.12,412.07h77.17c7.2,0,13.05,5.85,13.05,13.05v380.94c0,.81-.66,1.48-1.48,1.48h-88.75c-.81,0-1.48-.66-1.48-1.48v-392.52c0-.81.66-1.48,1.48-1.48Z" transform="translate(321.69 1541.3) rotate(-90)"/>
    </g>
    <path d="M456.54,604.56l.2,96.43c.09,40.83,18.28,78.65,48.45,104.98,1.26.41,2.46,1.05,3.54,1.95,23.25,19.43,51.35,29.7,79.71,30.57.79.02,1.58.05,2.37.05.12,0,.25,0,.37,0,.07,0,.14,0,.21,0,1.97,0,3.94-.07,5.91-.17.12,0,.23,0,.35-.02,2.04-.11,4.08-.27,6.12-.48.15-.02.31-.03.46-.05,24.97-2.63,49.33-12.59,69.88-29.86,1.15-.96,2.46-1.63,3.84-2.04,30.13-26.32,48.31-64.12,48.39-104.93l.21-98.4-.17-35.59c-.03-6.89-5.38-11.08-12.29-11.09l-48.59-.09h-17.54c-5.76,0-10.46,5.33-10.5,11.06l-.93,137.02c-.16,24.04-23.6,41.4-45.31,40.86-.1,0-.19,0-.29,0-.3,0-.6,0-.9,0-.46,0-.92-.03-1.37-.06-.23-.01-.45-.02-.68-.04-.58-.04-1.15-.09-1.73-.16-.06,0-.13-.01-.19-.02-5.37-.63-10.71-2.28-15.64-4.79-.21-.11-.41-.21-.62-.32-.37-.2-.74-.4-1.11-.61-.5-.28-.99-.57-1.47-.86-.09-.06-.19-.11-.28-.17-4.08-2.54-7.79-5.7-10.91-9.37v.08c-5.73-6.7-9.4-15.11-9.46-24.56l-.93-137.02c-.03-4.92-3.5-9.52-8.11-10.74-.86-.15-1.75-.23-2.68-.23l-54.64-.1h-12.7c-.35,0-.7.02-1.05.05-5.27.65-9.62,5.74-9.65,11.05l-.25,37.64Z"/>
    <path class="cls-2" d="M752.68,838.63h-76.31c-4.99,0-9.03,4.04-9.03,9.03v8.59c-20.12-11.28-43.31-17.71-68.01-17.71-76.93,0-139.29,62.36-139.29,139.29,0,76.93,62.36,139.29,139.29,139.29,24.7,0,47.89-6.44,68.01-17.71v8.59c0,4.99,4.04,9.03,9.03,9.03h76.31c4.99,0,9.03-4.04,9.03-9.03v-260.33c0-4.99-4.04-9.03-9.03-9.03ZM599.32,1025.63c-26.4,0-47.8-21.4-47.8-47.8,0-26.4,21.4-47.8,47.8-47.8,26.4,0,47.8,21.4,47.8,47.8,0,26.4-21.4,47.8-47.8,47.8Z"/>
    <g>
      <path d="M1495.88,735.55c0,75.82,61.46,137.28,137.29,137.28,75.82,0,137.28-61.46,137.28-137.29,0-75.82-61.46-137.28-137.29-137.28-75.82,0-137.28,61.46-137.28,137.29ZM1680.28,735.55c0,26.02-21.09,47.11-47.11,47.11-26.02,0-47.11-21.09-47.11-47.11,0-26.02,21.09-47.11,47.11-47.11,26.02,0,47.11,21.09,47.11,47.11Z"/>
      <path d="M1524.77,421.44h78.28c7.31,0,13.24,5.93,13.24,13.24v386.41c0,.83-.67,1.5-1.5,1.5h-90.02c-.83,0-1.5-.67-1.5-1.5v-398.15c0-.83.67-1.5,1.5-1.5Z" transform="translate(947.77 2191.8) rotate(-90)"/>
    </g>
    <path class="cls-7" d="M1613.14,292.5c-76.28,1.06-138.55,63.31-139.62,139.6-1.07,76.06,57.81,138.6,132.41,143.39,4.96.32,9.15-3.65,9.15-8.62v-46.69s-24.44,0-24.44,0c-8.07,0-14.61-6.54-14.61-14.61v-90.19c0-34.63,28.07-62.7,62.7-62.7v138.01s0,29.49,0,29.49v42.87c0,5.74,5.41,9.88,10.98,8.48,61.53-15.42,107.1-71.08,107.1-137.4,0-78.9-64.51-142.74-143.67-141.64Z"/>
    <path d="M586.03,1118.51c-64.33,8.71-115.51,59.62-124.51,123.9-11.02,78.65,40.5,147.45,112.01,163.9v-.04c3.92.9,7.89,1.66,11.92,2.24,5.09.73,9.73-3,10.09-8.12l4.55-71.16c.54-8.43-4.5-16.11-12.32-19.31-18.73-7.66-31.72-26.45-30.73-48.15.53-11.65,5.2-22.32,12.55-30.57,1.43-1.6,4.09-.63,4.17,1.51l1.23,32.07c.12,3.02,2.19,5.74,5.16,6.32,4.02.78,7.58-2.18,7.74-6.06l1.77-44.31c.07-1.76,1.07-3.43,2.7-4.08,2.83-1.13,5.82.88,5.94,3.83l1.71,44.31c.12,3.02,2.19,5.74,5.16,6.32,4.02.78,7.58-2.18,7.74-6.06l1.77-44.37c.13-3.25,3.73-5.45,6.48-3.72,1.27.79,2.1,2.18,2.16,3.73l1.7,44.11c.12,3.02,2.19,5.74,5.16,6.32,4.02.78,7.58-2.18,7.74-6.06l1.3-32.5c.09-2.14,2.74-3.1,4.17-1.5,7.86,8.76,12.65,20.34,12.65,33.03,0,20.74-12.75,38.49-30.84,45.87-7.76,3.16-12.8,10.73-12.26,19.09l3.97,60.79h0l.06.94.64,9.82c.46,5.01,5.03,8.64,10.04,7.93.17-.02.34-.06.51-.08,3.86-.57,7.67-1.3,11.42-2.16h0c64.96-14.99,113.4-73.17,113.4-142.69,0-87.62-76.94-157.27-166.94-145.08Z"/>
    <path class="cls-7" d="M1435.32,1345.56c8.1,59.78,55.4,107.34,115.14,115.71,73.09,10.24,137.02-37.63,152.31-104.09h-.03c.83-3.64,1.55-7.33,2.08-11.08.68-4.73-2.79-9.05-7.55-9.37l-66.13-4.23c-7.84-.5-14.97,4.18-17.94,11.45-7.12,17.4-24.58,29.47-44.74,28.56-10.82-.49-20.74-4.83-28.41-11.67-1.49-1.33-.58-3.8,1.41-3.87l29.81-1.15c2.81-.11,5.33-2.04,5.87-4.79.73-3.73-2.03-7.05-5.64-7.19l-41.18-1.64c-1.63-.07-3.19-.99-3.79-2.51-1.05-2.63.82-5.41,3.56-5.52l41.18-1.59c2.81-.11,5.33-2.04,5.87-4.79.73-3.73-2.03-7.05-5.64-7.19l-41.23-1.64c-3.02-.12-5.06-3.46-3.46-6.03.74-1.18,2.03-1.95,3.47-2.01l40.99-1.58c2.81-.11,5.33-2.04,5.87-4.79.73-3.73-2.03-7.05-5.64-7.19l-30.2-1.2c-1.99-.08-2.88-2.55-1.4-3.88,8.14-7.3,18.9-11.75,30.7-11.75,19.27,0,35.77,11.85,42.62,28.66,2.94,7.21,9.97,11.9,17.74,11.39l56.49-3.69h0s.87-.06.87-.06l9.13-.6c4.66-.42,8.02-4.67,7.37-9.33-.02-.16-.05-.32-.08-.48-.53-3.59-1.21-7.12-2.01-10.62h0c-13.94-60.37-68-105.38-132.6-105.38-81.43,0-146.15,71.5-134.82,155.14Z"/>
    <path d="M1715.75,1987.17c-54.2-52.71-141.44-52.71-195.64-.01-54.04,52.54-56.61,137.62-7.7,193.25,3.25,3.7,8.97,3.85,12.45.37l32.72-32.72-17.13-17.13c-5.65-5.65-5.65-14.82,0-20.48l63.19-63.19c24.27-24.27,63.61-24.27,87.87,0l-96.7,96.7-20.66,20.66-30.04,30.04c-4.02,4.02-3.13,10.71,1.75,13.63,53.92,32.31,124.85,25.24,171.32-21.23,55.29-55.29,54.81-145.22-1.42-199.91Z"/>
  </g>
  <g>
    <path class="cls-11" d="M3613.49,603.12c-52.22-50.79-136.21-51.05-188.74-.57-50.22,48.26-55.14,125.35-14.76,179.27,2.84,3.8,8.32,4.39,11.88,1.25l48.81-42.93c6.64-5.84,8.68-15.16,5.54-23.43-6.4-16.87-2.43-36.77,11.92-49.87,17-15.53,43.5-15.78,60.77-.54,19.91,17.56,20.62,47.97,2.14,66.45-13.11,13.11-32.22,16.56-48.48,10.35-8.25-3.15-17.57-.98-23.39,5.65l-42.81,48.8c-3.13,3.56-2.54,9.03,1.26,11.87,53.19,39.77,128.91,35.49,177.25-12.85,53.5-53.5,53.04-140.52-1.38-193.45Z"/>
    <path class="cls-9" d="M2636.74,436.06c.09,43.46,20.7,83.52,54.43,109.92,13.77,10.78,29.01,18.33,44.85,22.8v.06c2.99.84,6,1.55,9.02,2.16.2.04.39.08.59.12,1.98.39,3.97.75,5.97,1.05.14.02.28.04.42.06,1.85.27,3.7.5,5.56.69.29.03.57.06.86.09,1.88.18,3.75.31,5.63.41.38.02.75.04,1.13.05,1.92.08,3.84.13,5.75.13.15,0,.3,0,.45,0,1.97,0,3.94-.07,5.91-.17.12,0,.23,0,.35-.02,2.04-.11,4.08-.27,6.12-.48.15-.02.31-.03.46-.05,24.97-2.63,49.33-12.59,69.88-29.86,3.92-3.3,9.77-3.48,13.88-.05,47.2,39.45,114.38,41.2,163.18,3,33.73-26.4,54.34-66.46,54.43-109.92l.28-134.12c.01-6.08-4.95-11.05-11.03-11.05h-67.63c-5.76,0-10.46,5.33-10.5,11.07l-.93,137.02c-.16,24.21-23.93,41.65-45.77,40.85-21.29-.78-42.88-18.44-42.99-42.05l-.65-135.71c-.03-6.89-5.38-11.08-12.29-11.09l-67.24-.12c-5.77-.01-10.77,5.43-10.8,11.12l-.91,136.59c-.11,16.52-11.03,29.92-24.85,36.62-.49.24-.99.46-1.49.69-.25.11-.51.23-.76.34-.3.13-.6.24-.9.36-3.02,1.21-6.15,2.11-9.3,2.65-.01,0-.03,0-.04,0-.62.11-1.24.2-1.87.27-.12.01-.23.03-.35.04-.54.06-1.08.12-1.63.16-.24.02-.48.03-.72.05-.44.03-.88.05-1.32.06-.32,0-.65,0-.97.01-.3,0-.6,0-.9,0-.46,0-.92-.03-1.37-.06-.23-.01-.45-.02-.68-.04-.58-.04-1.15-.09-1.73-.16-.06,0-.13-.01-.19-.02-5.37-.63-10.71-2.28-15.64-4.79-.21-.11-.41-.21-.62-.32-.37-.2-.74-.4-1.11-.61-.5-.28-.99-.57-1.47-.86-.09-.06-.19-.11-.28-.17-4.08-2.54-7.79-5.7-10.91-9.37v.08c-5.73-6.7-9.4-15.11-9.46-24.56l-.93-137.02c-.04-5.74-4.74-11.06-10.5-11.06h-67.63c-6.08,0-11.04,4.96-11.03,11.04l.28,134.12Z"/>
    <path class="cls-7" d="M3364.36,583.51v-76.31c0-4.99-4.04-9.03-9.03-9.03h-8.59c11.28-20.12,17.71-43.31,17.71-68.01,0-76.93-62.36-139.29-139.29-139.29-76.93,0-139.29,62.36-139.29,139.29,0,24.7,6.44,47.89,17.71,68.01h-8.59c-4.99,0-9.03,4.04-9.03,9.03v76.31c0,4.99,4.04,9.03,9.03,9.03h260.33c4.99,0,9.03-4.04,9.03-9.03ZM3177.37,430.16c0-26.4,21.4-47.8,47.8-47.8,26.4,0,47.8,21.4,47.8,47.8,0,26.4-21.4,47.8-47.8,47.8-26.4,0-47.8-21.4-47.8-47.8Z"/>
    <g>
      <path class="cls-1" d="M2217.75,569.07c76.93,0,139.29-62.36,139.29-139.29,0-76.93-62.36-139.29-139.29-139.29s-139.29,62.36-139.29,139.29c0,76.93,62.36,139.29,139.29,139.29ZM2217.75,381.98c26.4,0,47.8,21.4,47.8,47.8,0,26.4-21.4,47.8-47.8,47.8s-47.8-21.4-47.8-47.8c0-26.4,21.4-47.8,47.8-47.8Z"/>
      <path class="cls-1" d="M2056.88,290.58h79.43c7.41,0,13.43,6.02,13.43,13.43v392.06c0,.84-.68,1.52-1.52,1.52h-91.34c-.84,0-1.52-.68-1.52-1.52v-403.97c0-.84.68-1.52,1.52-1.52Z" transform="translate(4205.11 988.18) rotate(-180)"/>
    </g>
    <path d="M3598.44,290.86l-96.43.2c-40.83.09-78.65,18.28-104.98,48.45-.41,1.26-1.05,2.46-1.95,3.54-19.43,23.25-29.7,51.35-30.57,79.71-.02.79-.05,1.58-.05,2.37,0,.12,0,.25,0,.37,0,.07,0,.14,0,.21,0,1.97.07,3.94.17,5.91,0,.12,0,.23.02.35.11,2.04.27,4.08.48,6.12.02.15.03.31.05.46,2.63,24.97,12.59,49.33,29.86,69.88.96,1.15,1.63,2.46,2.04,3.84,26.32,30.13,64.12,48.31,104.93,48.39l98.4.21,35.59-.17c6.89-.03,11.08-5.38,11.09-12.29l.09-48.59v-17.54c0-5.76-5.33-10.46-11.06-10.5l-137.02-.93c-24.04-.16-41.4-23.6-40.86-45.31,0-.1,0-.19,0-.29,0-.3,0-.6,0-.9,0-.46.03-.92.06-1.37.01-.23.02-.45.04-.68.04-.58.09-1.15.16-1.73,0-.06.01-.13.02-.19.63-5.37,2.28-10.71,4.79-15.64.11-.21.21-.41.32-.62.2-.37.4-.74.61-1.11.28-.5.57-.99.86-1.47.06-.09.11-.19.17-.28,2.54-4.08,5.7-7.79,9.37-10.91h-.08c6.7-5.73,15.11-9.4,24.56-9.46l137.02-.93c4.92-.03,9.52-3.5,10.74-8.11.15-.86.23-1.75.23-2.68l.1-54.64v-12.7c0-.35-.02-.7-.05-1.05-.65-5.27-5.74-9.62-11.05-9.65l-37.64-.25Z"/>
    <path d="M3136.14,862.55l96.43-.2c40.83-.09,78.65-18.28,104.98-48.45.41-1.26,1.05-2.46,1.95-3.54,19.43-23.25,29.7-51.35,30.57-79.71.02-.79.05-1.58.05-2.37,0-.12,0-.25,0-.37,0-.07,0-.14,0-.21,0-1.97-.07-3.94-.17-5.91,0-.12,0-.23-.02-.35-.11-2.04-.27-4.08-.48-6.12-.02-.15-.03-.31-.05-.46-2.63-24.97-12.59-49.33-29.86-69.88-.96-1.15-1.63-2.46-2.04-3.84-26.32-30.13-64.12-48.31-104.93-48.39l-98.4-.21-35.59.17c-6.89.03-11.08,5.38-11.09,12.29l-.09,48.59v17.54c0,5.76,5.33,10.46,11.06,10.5l137.02.93c24.04.16,41.4,23.6,40.86,45.31,0,.1,0,.19,0,.29,0,.3,0,.6,0,.9,0,.46-.03.92-.06,1.37-.01.23-.02.45-.04.68-.04.58-.09,1.15-.16,1.73,0,.06-.01.13-.02.19-.63,5.37-2.28,10.71-4.79,15.64-.11.21-.21.41-.32.62-.2.37-.4.74-.61,1.11-.28.5-.57.99-.86,1.47-.06.09-.11.19-.17.28-2.54,4.08-5.7,7.79-9.37,10.91h.08c-6.7,5.73-15.11,9.4-24.56,9.46l-137.02.93c-4.92.03-9.52,3.5-10.74,8.11-.15.86-.23,1.75-.23,2.68l-.1,54.64v12.7c0,.35.02.7.05,1.05.65,5.27,5.74,9.62,11.05,9.65l37.64.25Z"/>
    <path class="cls-5" d="M3046.09,592.54l-96.43.2c-40.83.09-78.65,18.28-104.98,48.45-.41,1.26-1.05,2.46-1.95,3.54-19.43,23.25-29.7,51.35-30.57,79.71-.02.79-.05,1.58-.05,2.37,0,.12,0,.25,0,.37,0,.07,0,.14,0,.21,0,1.97.07,3.94.17,5.91,0,.12,0,.23.02.35.11,2.04.27,4.08.48,6.12.02.15.03.31.05.46,2.63,24.97,12.59,49.33,29.86,69.88.96,1.15,1.63,2.46,2.04,3.84,26.32,30.13,64.12,48.31,104.93,48.39l98.4.21,35.59-.17c6.89-.03,11.08-5.38,11.09-12.29l.09-48.59v-17.54c0-5.76-5.33-10.46-11.06-10.5l-137.02-.93c-24.04-.16-41.4-23.6-40.86-45.31,0-.1,0-.19,0-.29,0-.3,0-.6,0-.9,0-.46.03-.92.06-1.37.01-.23.02-.45.04-.68.04-.58.09-1.15.16-1.73,0-.06.01-.13.02-.19.63-5.37,2.28-10.71,4.79-15.64.11-.21.21-.41.32-.62.2-.37.4-.74.61-1.11.28-.5.57-.99.86-1.47.06-.09.11-.19.17-.28,2.54-4.08,5.7-7.79,9.37-10.91h-.08c6.7-5.73,15.11-9.4,24.56-9.46l137.02-.93c4.92-.03,9.52-3.5,10.74-8.11.15-.86.23-1.75.23-2.68l.1-54.64v-12.7c0-.35-.02-.7-.05-1.05-.65-5.27-5.74-9.62-11.05-9.65l-37.64-.25Z"/>
    <path class="cls-7" d="M3646.9,973.92c-.09-43.46-20.7-83.52-54.43-109.92-13.77-10.78-29.01-18.33-44.85-22.8v-.06c-2.99-.84-6-1.55-9.02-2.16-.2-.04-.39-.08-.59-.12-1.98-.39-3.97-.75-5.97-1.05-.14-.02-.28-.04-.42-.06-1.85-.27-3.7-.5-5.56-.69-.29-.03-.57-.06-.86-.09-1.88-.18-3.75-.31-5.63-.41-.38-.02-.75-.04-1.13-.05-1.92-.08-3.84-.13-5.75-.13-.15,0-.3,0-.45,0-1.97,0-3.94.07-5.91.17-.12,0-.23,0-.35.02-2.04.11-4.08.27-6.12.48-.15.02-.31.03-.46.05-24.97,2.63-49.33,12.59-69.88,29.86-3.92,3.3-9.77,3.48-13.88.05-47.2-39.45-114.38-41.2-163.18-3-33.73,26.4-54.34,66.46-54.43,109.92l-.28,134.12c-.01,6.08,4.95,11.05,11.03,11.05h67.63c5.76,0,10.46-5.33,10.5-11.07l.93-137.02c.16-24.21,23.93-41.65,45.77-40.85,21.29.78,42.88,18.44,42.99,42.05l.65,135.71c.03,6.89,5.38,11.08,12.29,11.09l67.24.12c5.77.01,10.77-5.43,10.8-11.12l.91-136.59c.11-16.52,11.03-29.92,24.85-36.62.49-.24.99-.46,1.49-.69.25-.11.51-.23.76-.34.3-.13.6-.24.9-.36,3.02-1.21,6.15-2.11,9.3-2.65.01,0,.03,0,.04,0,.62-.11,1.24-.2,1.87-.27.12-.01.23-.03.35-.04.54-.06,1.08-.12,1.63-.16.24-.02.48-.03.72-.05.44-.03.88-.05,1.32-.06.32,0,.65,0,.97-.01.3,0,.6,0,.9,0,.46,0,.92.03,1.37.06.23.01.45.02.68.04.58.04,1.15.09,1.73.16.06,0,.13.01.19.02,5.37.63,10.71,2.28,15.64,4.79.21.11.41.21.62.32.37.2.74.4,1.11.61.5.28.99.57,1.47.86.09.06.19.11.28.17,4.08,2.54,7.79,5.7,10.91,9.37v-.08c5.73,6.7,9.4,15.11,9.46,24.56l.93,137.02c.04,5.74,4.74,11.06,10.5,11.06h67.63c6.08,0,11.04-4.96,11.03-11.04l-.28-134.12Z"/>
    <g>
      <path d="M3071.84,999.03c0-75.38-61.11-136.48-136.48-136.48-75.38,0-136.48,61.11-136.48,136.48,0,75.38,61.11,136.48,136.48,136.48,75.38,0,136.48-61.11,136.48-136.48ZM2888.52,999.03c0-25.87,20.97-46.84,46.84-46.84,25.87,0,46.84,20.97,46.84,46.84,0,25.87-20.97,46.84-46.84,46.84-25.87,0-46.84-20.97-46.84-46.84Z"/>
      <path d="M2953.62,912.51h77.82c7.26,0,13.16,5.9,13.16,13.16v384.15c0,.82-.67,1.49-1.49,1.49h-89.5c-.82,0-1.49-.67-1.49-1.49v-395.82c0-.82.67-1.49,1.49-1.49Z" transform="translate(4110.27 -1886.46) rotate(90)"/>
    </g>
    <path class="cls-6" d="M2731.39,759.76c49.45-50.85,49.71-132.64.56-183.78-47-48.9-122.07-53.69-174.56-14.37-3.7,2.77-4.27,8.1-1.22,11.57l41.81,47.53c5.69,6.46,14.77,8.45,22.81,5.4,16.43-6.23,35.8-2.36,48.56,11.6,15.12,16.56,15.36,42.36.53,59.18-17.1,19.39-46.71,20.08-64.71,2.08-12.77-12.77-16.12-31.37-10.08-47.21,3.06-8.03.95-17.11-5.51-22.77l-47.52-41.69c-3.47-3.04-8.8-2.47-11.56,1.23-38.73,51.8-34.56,125.52,12.51,172.6,52.1,52.1,136.84,51.65,188.37-1.34Z"/>
    <path d="M2055.14,974.03c.09,43.46,20.7,83.52,54.43,109.92,13.77,10.78,29.01,18.33,44.85,22.8v.06c2.99.84,6,1.55,9.02,2.16.2.04.39.08.59.12,1.98.39,3.97.75,5.97,1.05.14.02.28.04.42.06,1.85.27,3.7.5,5.56.69.29.03.57.06.86.09,1.88.18,3.75.31,5.63.41.38.02.75.04,1.13.05,1.92.08,3.84.13,5.75.13.15,0,.3,0,.45,0,1.97,0,3.94-.07,5.91-.17.12,0,.23,0,.35-.02,2.04-.11,4.08-.27,6.12-.48.15-.02.31-.03.46-.05,24.97-2.63,49.33-12.59,69.88-29.86,3.92-3.3,9.77-3.48,13.88-.05,47.2,39.45,114.38,41.2,163.18,3,33.73-26.4,54.34-66.46,54.43-109.92l.28-134.12c.01-6.08-4.95-11.05-11.03-11.05h-67.63c-5.76,0-10.46,5.33-10.5,11.07l-.93,137.02c-.16,24.21-23.93,41.65-45.77,40.85-21.29-.78-42.88-18.44-42.99-42.05l-.65-135.71c-.03-6.89-5.38-11.08-12.29-11.09l-67.24-.12c-5.77-.01-10.77,5.43-10.8,11.12l-.91,136.59c-.11,16.52-11.03,29.92-24.85,36.62-.49.24-.99.46-1.49.69-.25.11-.51.23-.76.34-.3.13-.6.24-.9.36-3.02,1.21-6.15,2.11-9.3,2.65-.01,0-.03,0-.04,0-.62.11-1.24.2-1.87.27-.12.01-.23.03-.35.04-.54.06-1.08.12-1.63.16-.24.02-.48.03-.72.05-.44.03-.88.05-1.32.06-.32,0-.65,0-.97.01-.3,0-.6,0-.9,0-.46,0-.92-.03-1.37-.06-.23-.01-.45-.02-.68-.04-.58-.04-1.15-.09-1.73-.16-.06,0-.13-.01-.19-.02-5.37-.63-10.71-2.28-15.64-4.79-.21-.11-.41-.21-.62-.32-.37-.2-.74-.4-1.11-.61-.5-.28-.99-.57-1.47-.86-.09-.06-.19-.11-.28-.17-4.08-2.54-7.79-5.7-10.91-9.37v.08c-5.73-6.7-9.4-15.11-9.46-24.56l-.93-137.02c-.04-5.74-4.74-11.06-10.5-11.06h-67.63c-6.08,0-11.04,4.96-11.03,11.04l.28,134.12Z"/>
    <path class="cls-11" d="M2584.99,1364.64c-58.58-56.97-152.79-57.26-211.71-.64-56.33,54.14-61.85,140.61-16.56,201.09,3.19,4.26,9.33,4.92,13.32,1.41l54.75-48.16c7.45-6.55,9.73-17.01,6.22-26.28-7.18-18.92-2.72-41.24,13.37-55.94,19.07-17.42,48.8-17.7,68.17-.61,22.33,19.7,23.13,53.81,2.4,74.54-14.7,14.7-36.14,18.57-54.39,11.61-9.25-3.53-19.71-1.1-26.23,6.34l-48.02,54.74c-3.51,4-2.84,10.13,1.41,13.32,59.67,44.61,144.59,39.81,198.82-14.42,60.01-60.01,59.49-157.63-1.55-216.99Z"/>
    <path class="cls-11" d="M2136.02,828.84h331.09c2.97,0,5.37-2.4,5.37-5.37v-78.28c0-2.97-2.4-5.37-5.37-5.37h-11.27c10.64-18.98,16.73-40.85,16.73-64.15,0-72.57-58.83-131.39-131.39-131.39s-131.39,58.83-131.39,131.39c0,23.3,6.09,45.17,16.73,64.15h-132.6c-2.97,0-5.37,2.4-5.37,5.37v36.19c0,26.21,21.25,47.46,47.46,47.46ZM2341.18,630.57c24.9,0,45.09,20.19,45.09,45.09,0,24.9-20.19,45.09-45.09,45.09-24.9,0-45.09-20.19-45.09-45.09s20.19-45.09,45.09-45.09Z"/>
    <path d="M2748.72,799.85l-99.24.21c-42.02.09-80.94,18.81-108.03,49.86-.42,1.29-1.08,2.53-2.01,3.64-20,23.93-30.56,52.84-31.46,82.03-.02.81-.05,1.62-.05,2.44,0,.13,0,.25,0,.38,0,.07,0,.15,0,.22.01,2.03.07,4.06.17,6.08,0,.12,0,.24.02.36.11,2.1.28,4.2.5,6.29.02.16.03.32.05.47,2.71,25.7,12.95,50.77,30.72,71.91.99,1.18,1.67,2.53,2.1,3.96,27.08,31.01,65.98,49.71,107.97,49.8l101.26.21,36.62-.17c7.09-.03,11.4-5.54,11.41-12.65l.09-50v-18.05c0-5.92-5.48-10.76-11.39-10.8l-141-.96c-24.74-.17-42.6-24.29-42.04-46.63,0-.1,0-.2,0-.3,0-.31,0-.62,0-.93,0-.47.03-.94.06-1.41.01-.23.02-.47.04-.7.04-.59.09-1.19.16-1.78,0-.07.01-.13.02-.19.65-5.52,2.35-11.02,4.93-16.1.11-.21.22-.42.33-.64.2-.38.41-.77.62-1.15.29-.51.58-1.02.89-1.52.06-.1.12-.19.17-.29,2.62-4.2,5.87-8.02,9.64-11.23h-.08c6.9-5.9,15.55-9.67,25.27-9.74l141-.96c5.06-.03,9.8-3.6,11.05-8.34.15-.88.24-1.8.24-2.75l.1-56.23v-13.07c0-.36-.02-.72-.05-1.08-.67-5.42-5.9-9.9-11.37-9.93l-38.73-.26Z"/>
    <path class="cls-8" d="M2053.08,1418.2l.2,96.43c.09,40.83,18.28,78.65,48.45,104.98,1.26.41,2.46,1.05,3.54,1.95,23.25,19.43,51.35,29.7,79.71,30.57.79.02,1.58.05,2.37.05.12,0,.25,0,.37,0,.07,0,.14,0,.21,0,1.97,0,3.94-.07,5.91-.17.12,0,.23,0,.35-.02,2.04-.11,4.08-.27,6.12-.48.15-.02.31-.03.46-.05,24.97-2.63,49.33-12.59,69.88-29.86,1.15-.96,2.46-1.63,3.84-2.04,30.13-26.32,48.31-64.12,48.39-104.93l.21-98.4-.17-35.59c-.03-6.89-5.38-11.08-12.29-11.09l-48.59-.09h-17.54c-5.76,0-10.46,5.33-10.5,11.06l-.93,137.02c-.16,24.04-23.6,41.4-45.31,40.86-.1,0-.19,0-.29,0-.3,0-.6,0-.9,0-.46,0-.92-.03-1.37-.06-.23-.01-.45-.02-.68-.04-.58-.04-1.15-.09-1.73-.16-.06,0-.13-.01-.19-.02-5.37-.63-10.71-2.28-15.64-4.79-.21-.11-.41-.21-.62-.32-.37-.2-.74-.4-1.11-.61-.5-.28-.99-.57-1.47-.86-.09-.06-.19-.11-.28-.17-4.08-2.54-7.79-5.7-10.91-9.37v.08c-5.73-6.7-9.4-15.11-9.46-24.56l-.93-137.02c-.03-4.92-3.5-9.52-8.11-10.74-.86-.15-1.75-.23-2.68-.23l-54.64-.1h-12.7c-.35,0-.7.02-1.05.05-5.27.65-9.62,5.74-9.65,11.05l-.25,37.64Z"/>
    <path d="M2323.08,1338.09l-.2-96.43c-.09-40.83-18.28-78.65-48.45-104.98-1.26-.41-2.46-1.05-3.54-1.95-23.25-19.43-51.35-29.7-79.71-30.57-.79-.02-1.58-.05-2.37-.05-.12,0-.25,0-.37,0-.07,0-.14,0-.21,0-1.97,0-3.94.07-5.91.17-.12,0-.23,0-.35.02-2.04.11-4.08.27-6.12.48-.15.02-.31.03-.46.05-24.97,2.63-49.33,12.59-69.88,29.86-1.15.96-2.46,1.63-3.84,2.04-30.13,26.32-48.31,64.12-48.39,104.93l-.21,98.4.17,35.59c.03,6.89,5.38,11.08,12.29,11.09l48.59.09h17.54c5.76,0,10.46-5.33,10.5-11.06l.93-137.02c.16-24.04,23.6-41.4,45.31-40.86.1,0,.19,0,.29,0,.3,0,.6,0,.9,0,.46,0,.92.03,1.37.06.23.01.45.02.68.04.58.04,1.15.09,1.73.16.06,0,.13.01.19.02,5.37.63,10.71,2.28,15.64,4.79.21.11.41.21.62.32.37.2.74.4,1.11.61.5.28.99.57,1.47.86.09.06.19.11.28.17,4.08,2.54,7.79,5.7,10.91,9.37v-.08c5.73,6.7,9.4,15.11,9.46,24.56l.93,137.02c.03,4.92,3.5,9.52,8.11,10.74.86.15,1.75.23,2.68.23l54.64.1h12.7c.35,0,.7-.02,1.05-.05,5.27-.65,9.62-5.74,9.65-11.05l.25-37.64Z"/>
    <path d="M3321.38,1137.51l-96.43.2c-40.83.09-78.65,18.28-104.98,48.45-.41,1.26-1.05,2.46-1.95,3.54-19.43,23.25-29.7,51.35-30.57,79.71-.02.79-.05,1.58-.05,2.37,0,.12,0,.25,0,.37,0,.07,0,.14,0,.21,0,1.97.07,3.94.17,5.91,0,.12,0,.23.02.35.11,2.04.27,4.08.48,6.12.02.15.03.31.05.46,2.63,24.97,12.59,49.33,29.86,69.88.96,1.15,1.63,2.46,2.04,3.84,26.32,30.13,64.12,48.31,104.93,48.39l98.4.21,35.59-.17c6.89-.03,11.08-5.38,11.09-12.29l.09-48.59v-17.54c0-5.76-5.33-10.46-11.06-10.5l-137.02-.93c-24.04-.16-41.4-23.6-40.86-45.31,0-.1,0-.19,0-.29,0-.3,0-.6,0-.9,0-.46.03-.92.06-1.37.01-.23.02-.45.04-.68.04-.58.09-1.15.16-1.73,0-.06.01-.13.02-.19.63-5.37,2.28-10.71,4.79-15.64.11-.21.21-.41.32-.62.2-.37.4-.74.61-1.11.28-.5.57-.99.86-1.47.06-.09.11-.19.17-.28,2.54-4.08,5.7-7.79,9.37-10.91h-.08c6.7-5.73,15.11-9.4,24.56-9.46l137.02-.93c4.92-.03,9.52-3.5,10.74-8.11.15-.86.23-1.75.23-2.68l.1-54.64v-12.7c0-.35-.02-.7-.05-1.05-.65-5.27-5.74-9.62-11.05-9.65l-37.64-.25Z"/>
    <path d="M2825.85,1613.36c43.46-.09,83.52-20.7,109.92-54.43,10.78-13.77,18.33-29.01,22.8-44.85h.06c.84-2.99,1.55-6,2.16-9.02.04-.2.08-.39.12-.59.39-1.98.75-3.97,1.05-5.97.02-.14.04-.28.06-.42.27-1.85.5-3.7.69-5.56.03-.29.06-.57.09-.86.18-1.88.31-3.75.41-5.63.02-.38.04-.75.05-1.13.08-1.92.13-3.84.13-5.75,0-.15,0-.3,0-.45,0-1.97-.07-3.94-.17-5.91,0-.12,0-.23-.02-.35-.11-2.04-.27-4.08-.48-6.12-.02-.15-.03-.31-.05-.46-2.63-24.97-12.59-49.33-29.86-69.88-3.3-3.92-3.48-9.77-.05-13.88,39.45-47.2,41.2-114.38,3-163.18-26.4-33.73-66.46-54.34-109.92-54.43l-134.12-.28c-6.08-.01-11.05,4.95-11.05,11.03v67.63c0,5.76,5.33,10.46,11.07,10.5l137.02.93c24.21.16,41.65,23.93,40.85,45.77-.78,21.29-18.44,42.88-42.05,42.99l-135.71.65c-6.89.03-11.08,5.38-11.09,12.29l-.12,67.24c-.01,5.77,5.43,10.77,11.12,10.8l136.59.91c16.52.11,29.92,11.03,36.62,24.85.24.49.46.99.69,1.49.11.25.23.51.34.76.13.3.24.6.36.9,1.21,3.02,2.11,6.15,2.65,9.3,0,.01,0,.03,0,.04.11.62.2,1.24.27,1.87.01.12.03.23.04.35.06.54.12,1.08.16,1.63.02.24.03.48.05.72.03.44.05.88.06,1.32,0,.32,0,.65.01.97,0,.3,0,.6,0,.9,0,.46-.03.92-.06,1.37-.01.23-.02.45-.04.68-.04.58-.09,1.15-.16,1.73,0,.06-.01.13-.02.19-.63,5.37-2.28,10.71-4.79,15.64-.11.21-.21.41-.32.62-.2.37-.4.74-.61,1.11-.28.5-.57.99-.86,1.47-.06.09-.11.19-.17.28-2.54,4.08-5.7,7.79-9.37,10.91h.08c-6.7,5.73-15.11,9.4-24.56,9.46l-137.02.93c-5.74.04-11.06,4.74-11.06,10.5v67.63c0,6.08,4.96,11.04,11.04,11.03l134.12-.28Z"/>
    <g>
      <path class="cls-7" d="M2986.12,1527.85c0,74.54,60.42,134.96,134.96,134.96,74.54,0,134.96-60.42,134.96-134.96,0-74.54-60.42-134.96-134.96-134.96s-134.96,60.42-134.96,134.96ZM3074.77,1527.85c0-25.58,20.74-46.31,46.31-46.31,25.58,0,46.31,20.74,46.31,46.31,0,25.58-20.74,46.31-46.31,46.31-25.58,0-46.31-20.74-46.31-46.31Z"/>
      <path class="cls-7" d="M2965.22,1268.36h88.5c.81,0,1.47.66,1.47,1.47v379.87c0,7.18-5.83,13.01-13.01,13.01h-76.96c-.81,0-1.47-.66-1.47-1.47v-391.41c0-.81.66-1.47,1.47-1.47Z" transform="translate(6018.93 2931.09) rotate(-180)"/>
    </g>
    <path class="cls-7" d="M2326.45,1884.76l-.2-96.43c-.09-40.83-18.28-78.65-48.45-104.98-1.26-.41-2.46-1.05-3.54-1.95-23.25-19.43-51.35-29.7-79.71-30.57-.79-.02-1.58-.05-2.37-.05-.12,0-.25,0-.37,0-.07,0-.14,0-.21,0-1.97,0-3.94.07-5.91.17-.12,0-.23,0-.35.02-2.04.11-4.08.27-6.12.48-.15.02-.31.03-.46.05-24.97,2.63-49.33,12.59-69.88,29.86-1.15.96-2.46,1.63-3.84,2.04-30.13,26.32-48.31,64.12-48.39,104.93l-.21,98.4.17,35.59c.03,6.89,5.38,11.08,12.29,11.09l48.59.09h17.54c5.76,0,10.46-5.33,10.5-11.06l.93-137.02c.16-24.04,23.6-41.4,45.31-40.86.1,0,.19,0,.29,0,.3,0,.6,0,.9,0,.46,0,.92.03,1.37.06.23.01.45.02.68.04.58.04,1.15.09,1.73.16.06,0,.13.01.19.02,5.37.63,10.71,2.28,15.64,4.79.21.11.41.21.62.32.37.2.74.4,1.11.61.5.28.99.57,1.47.86.09.06.19.11.28.17,4.08,2.54,7.79,5.7,10.91,9.37v-.08c5.73,6.7,9.4,15.11,9.46,24.56l.93,137.02c.03,4.92,3.5,9.52,8.11,10.74.86.15,1.75.23,2.68.23l54.64.1h12.7c.35,0,.7-.02,1.05-.05,5.27-.65,9.62-5.74,9.65-11.05l.25-37.64Z"/>
    <path class="cls-10" d="M3646.7,2094.07c-1.04-74.64-61.72-135.7-136.35-137.19-71.36-1.42-130.79,50.88-140.61,119.21-.69,4.81,2.85,9.21,7.7,9.52l66.48,4.25c9.04.58,17.28-4.7,21-12.96,7.59-16.86,24.89-28.4,44.77-27.5,23.57,1.07,42.96,20.09,44.43,43.64,1.7,27.15-19.82,49.71-46.61,49.71-19,0-35.34-11.35-42.64-27.63-3.7-8.26-12.02-13.44-21.05-12.85l-66.39,4.34c-4.85.32-8.38,4.71-7.69,9.52,9.73,67.37,67.7,119.13,137.76,119.13,77.54,0,140.27-63.4,139.18-141.18Z"/>
    <path class="cls-11" d="M3321.38,1958.86l-96.43.2c-40.83.09-78.65,18.28-104.98,48.45-.41,1.26-1.05,2.46-1.95,3.54-19.43,23.25-29.7,51.35-30.57,79.71-.02.79-.05,1.58-.05,2.37,0,.12,0,.25,0,.37,0,.07,0,.14,0,.21,0,1.97.07,3.94.17,5.91,0,.12,0,.23.02.35.11,2.04.27,4.08.48,6.12.02.15.03.31.05.46,2.63,24.97,12.59,49.33,29.86,69.88.96,1.15,1.63,2.46,2.04,3.84,26.32,30.13,64.12,48.31,104.93,48.39l98.4.21,35.59-.17c6.89-.03,11.08-5.38,11.09-12.29l.09-48.59v-17.54c0-5.76-5.33-10.46-11.06-10.5l-137.02-.93c-24.04-.16-41.4-23.6-40.86-45.31,0-.1,0-.19,0-.29,0-.3,0-.6,0-.9,0-.46.03-.92.06-1.37.01-.23.02-.45.04-.68.04-.58.09-1.15.16-1.73,0-.06.01-.13.02-.19.63-5.37,2.28-10.71,4.79-15.64.11-.21.21-.41.32-.62.2-.37.4-.74.61-1.11.28-.5.57-.99.86-1.47.06-.09.11-.19.17-.28,2.54-4.08,5.7-7.79,9.37-10.91h-.08c6.7-5.73,15.11-9.4,24.56-9.46l137.02-.93c4.92-.03,9.52-3.5,10.74-8.11.15-.86.23-1.75.23-2.68l.1-54.64v-12.7c0-.35-.02-.7-.05-1.05-.65-5.27-5.74-9.62-11.05-9.65l-37.64-.25Z"/>
    <path d="M2638.87,2097.68c.09,43.46,20.7,83.52,54.43,109.92,13.77,10.78,29.01,18.33,44.85,22.8v.06c2.99.84,6,1.55,9.02,2.16.2.04.39.08.59.12,1.98.39,3.97.75,5.97,1.05.14.02.28.04.42.06,1.85.27,3.7.5,5.56.69.29.03.57.06.86.09,1.88.18,3.75.31,5.63.41.38.02.75.04,1.13.05,1.92.08,3.84.13,5.75.13.15,0,.3,0,.45,0,1.97,0,3.94-.07,5.91-.17.12,0,.23,0,.35-.02,2.04-.11,4.08-.27,6.12-.48.15-.02.31-.03.46-.05,24.97-2.63,49.33-12.59,69.88-29.86,3.92-3.3,9.77-3.48,13.88-.05,47.2,39.45,114.38,41.2,163.18,3,33.73-26.4,54.34-66.46,54.43-109.92l.28-134.12c.01-6.08-4.95-11.05-11.03-11.05h-67.63c-5.76,0-10.46,5.33-10.5,11.07l-.93,137.02c-.16,24.21-23.93,41.65-45.77,40.85-21.29-.78-42.88-18.44-42.99-42.05l-.65-135.71c-.03-6.89-5.38-11.08-12.29-11.09l-67.24-.12c-5.77-.01-10.77,5.43-10.8,11.12l-.91,136.59c-.11,16.52-11.03,29.92-24.85,36.62-.49.24-.99.46-1.49.69-.25.11-.51.23-.76.34-.3.13-.6.24-.9.36-3.02,1.21-6.15,2.11-9.3,2.65-.01,0-.03,0-.04,0-.62.11-1.24.2-1.87.27-.12.01-.23.03-.35.04-.54.06-1.08.12-1.63.16-.24.02-.48.03-.72.05-.44.03-.88.05-1.32.06-.32,0-.65,0-.97.01-.3,0-.6,0-.9,0-.46,0-.92-.03-1.37-.06-.23-.01-.45-.02-.68-.04-.58-.04-1.15-.09-1.73-.16-.06,0-.13-.01-.19-.02-5.37-.63-10.71-2.28-15.64-4.79-.21-.11-.41-.21-.62-.32-.37-.2-.74-.4-1.11-.61-.5-.28-.99-.57-1.47-.86-.09-.06-.19-.11-.28-.17-4.08-2.54-7.79-5.7-10.91-9.37v.08c-5.73-6.7-9.4-15.11-9.46-24.56l-.93-137.02c-.04-5.74-4.74-11.06-10.5-11.06h-67.63c-6.08,0-11.04,4.96-11.03,11.04l.28,134.12Z"/>
    <path class="cls-5" d="M2112.68,2203.5l101.06-.2c42.79-.09,82.42-18.28,110.01-48.45.43-1.26,1.1-2.46,2.04-3.54,20.37-23.25,31.12-51.35,32.03-79.71.02-.79.06-1.58.06-2.37,0-.12,0-.25,0-.37,0-.07,0-.14,0-.21-.01-1.97-.07-3.94-.17-5.91,0-.12,0-.23-.02-.35-.11-2.04-.29-4.08-.5-6.12-.02-.15-.03-.31-.05-.46-2.76-24.97-13.19-49.33-31.29-69.88-1.01-1.15-1.7-2.46-2.14-3.84-27.58-30.13-67.2-48.31-109.96-48.39l-103.12-.21-37.3.17c-7.22.03-11.61,5.38-11.62,12.29l-.09,48.59v17.54c0,5.76,5.58,10.46,11.59,10.5l143.58.93c25.2.16,43.38,23.6,42.81,45.31,0,.1,0,.19,0,.29,0,.3,0,.6,0,.9-.01.46-.03.92-.06,1.37-.01.23-.02.45-.04.68-.04.58-.1,1.15-.16,1.73,0,.06-.02.13-.02.19-.66,5.37-2.39,10.71-5.02,15.64-.11.21-.22.41-.34.62-.21.37-.42.74-.63,1.11-.29.5-.59.99-.9,1.47-.06.09-.12.19-.18.28-2.66,4.08-5.97,7.79-9.82,10.91h.09c-7.02,5.73-15.83,9.4-25.73,9.46l-143.58.93c-5.15.03-9.98,3.5-11.25,8.11-.15.86-.24,1.75-.24,2.68l-.1,54.64v12.7c0,.35.02.7.05,1.05.68,5.27,6.01,9.62,11.58,9.65l39.44.25Z"/>
    <path class="cls-4" d="M2739.13,1655.83c-52.05,53.52-52.32,139.6-.59,193.42,49.46,51.46,128.47,56.51,183.72,15.13,3.89-2.91,4.5-8.52,1.28-12.17l-44-50.02c-5.98-6.8-15.54-8.89-24.01-5.68-17.29,6.56-37.68,2.49-51.11-12.21-15.91-17.42-16.17-44.58-.56-62.28,18-20.4,49.16-21.13,68.1-2.19,13.43,13.43,16.97,33.02,10.61,49.69-3.22,8.45-1,18,5.79,23.97l50.01,43.88c3.65,3.2,9.26,2.6,12.17-1.29,40.76-54.51,36.37-132.11-13.17-181.65-54.83-54.83-144.01-54.36-198.25,1.41Z"/>
    <g>
      <path class="cls-6" d="M3256.04,1798.15c0-74.75-60.59-135.34-135.34-135.34-74.75,0-135.34,60.59-135.34,135.34,0,74.75,60.59,135.34,135.34,135.34,74.75,0,135.34-60.59,135.34-135.34ZM3074.26,1798.15c0-25.65,20.79-46.44,46.44-46.44,25.65,0,46.44,20.79,46.44,46.44,0,25.65-20.79,46.44-46.44,46.44-25.65,0-46.44-20.79-46.44-46.44Z"/>
      <path class="cls-6" d="M3138.81,1712.35h77.17c7.2,0,13.05,5.85,13.05,13.05v380.94c0,.81-.66,1.48-1.48,1.48h-88.75c-.81,0-1.48-.66-1.48-1.48v-392.52c0-.81.66-1.48,1.48-1.48Z" transform="translate(5093.27 -1273.1) rotate(90)"/>
    </g>
    <path d="M3658.14,1915.34l-.2-96.43c-.09-40.83-18.28-78.65-48.45-104.98-1.26-.41-2.46-1.05-3.54-1.95-23.25-19.43-51.35-29.7-79.71-30.57-.79-.02-1.58-.05-2.37-.05-.12,0-.25,0-.37,0-.07,0-.14,0-.21,0-1.97,0-3.94.07-5.91.17-.12,0-.23,0-.35.02-2.04.11-4.08.27-6.12.48-.15.02-.31.03-.46.05-24.97,2.63-49.33,12.59-69.88,29.86-1.15.96-2.46,1.63-3.84,2.04-30.13,26.32-48.31,64.12-48.39,104.93l-.21,98.4.17,35.59c.03,6.89,5.38,11.08,12.29,11.09l48.59.09h17.54c5.76,0,10.46-5.33,10.5-11.06l.93-137.02c.16-24.04,23.6-41.4,45.31-40.86.1,0,.19,0,.29,0,.3,0,.6,0,.9,0,.46,0,.92.03,1.37.06.23.01.45.02.68.04.58.04,1.15.09,1.73.16.06,0,.13.01.19.02,5.37.63,10.71,2.28,15.64,4.79.21.11.41.21.62.32.37.2.74.4,1.11.61.5.28.99.57,1.47.86.09.06.19.11.28.17,4.08,2.54,7.79,5.7,10.91,9.37v-.08c5.73,6.7,9.4,15.11,9.46,24.56l.93,137.02c.03,4.92,3.5,9.52,8.11,10.74.86.15,1.75.23,2.68.23l54.64.1h12.7c.35,0,.7-.02,1.05-.05,5.27-.65,9.62-5.74,9.65-11.05l.25-37.64Z"/>
    <path class="cls-2" d="M3362,1681.26h76.31c4.99,0,9.03-4.04,9.03-9.03v-8.59c20.12,11.28,43.31,17.71,68.01,17.71,76.93,0,139.29-62.36,139.29-139.29,0-76.93-62.36-139.29-139.29-139.29-24.7,0-47.89,6.44-68.01,17.71v-8.59c0-4.99-4.04-9.03-9.03-9.03h-76.31c-4.99,0-9.03,4.04-9.03,9.03v260.33c0,4.99,4.04,9.03,9.03,9.03ZM3515.36,1494.26c26.4,0,47.8,21.4,47.8,47.8,0,26.4-21.4,47.8-47.8,47.8-26.4,0-47.8-21.4-47.8-47.8,0-26.4,21.4-47.8,47.8-47.8Z"/>
    <g>
      <path d="M2618.8,1784.34c0-75.82-61.46-137.28-137.29-137.28-75.82,0-137.28,61.46-137.28,137.29,0,75.82,61.46,137.28,137.29,137.28,75.82,0,137.28-61.46,137.28-137.29ZM2434.4,1784.34c0-26.02,21.09-47.11,47.11-47.11,26.02,0,47.11,21.09,47.11,47.11,0,26.02-21.09,47.11-47.11,47.11-26.02,0-47.11-21.09-47.11-47.11Z"/>
      <path d="M2499.89,1697.31h78.28c7.31,0,13.24,5.93,13.24,13.24v386.41c0,.83-.67,1.5-1.5,1.5h-90.02c-.83,0-1.5-.67-1.5-1.5v-398.15c0-.83.67-1.5,1.5-1.5Z" transform="translate(4442.78 -647.02) rotate(90)"/>
    </g>
    <path class="cls-7" d="M2501.54,2227.4c76.28-1.06,138.55-63.31,139.62-139.6,1.07-76.06-57.81-138.6-132.41-143.39-4.96-.32-9.15,3.65-9.15,8.62v46.69s24.44,0,24.44,0c8.07,0,14.61,6.54,14.61,14.61v90.19c0,34.63-28.07,62.7-62.7,62.7v-138.01s0-29.49,0-29.49v-42.87c0-5.74-5.41-9.88-10.98-8.48-61.53,15.42-107.1,71.08-107.1,137.4,0,78.9,64.51,142.74,143.67,141.64Z"/>
    <path d="M3528.65,1401.38c64.33-8.71,115.51-59.62,124.51-123.9,11.02-78.65-40.5-147.45-112.01-163.9v.04c-3.92-.9-7.89-1.66-11.92-2.24-5.09-.73-9.73,3-10.09,8.12l-4.55,71.16c-.54,8.43,4.5,16.11,12.32,19.31,18.73,7.66,31.72,26.45,30.73,48.15-.53,11.65-5.2,22.32-12.55,30.57-1.43,1.6-4.09.63-4.17-1.51l-1.23-32.07c-.12-3.02-2.19-5.74-5.16-6.32-4.02-.78-7.58,2.18-7.74,6.06l-1.77,44.31c-.07,1.76-1.07,3.43-2.7,4.08-2.83,1.13-5.82-.88-5.94-3.83l-1.71-44.31c-.12-3.02-2.19-5.74-5.16-6.32-4.02-.78-7.58,2.18-7.74,6.06l-1.77,44.37c-.13,3.25-3.73,5.45-6.48,3.72-1.27-.79-2.1-2.18-2.16-3.73l-1.7-44.11c-.12-3.02-2.19-5.74-5.16-6.32-4.02-.78-7.58,2.18-7.74,6.06l-1.3,32.5c-.09,2.14-2.74,3.1-4.17,1.5-7.86-8.76-12.65-20.34-12.65-33.03,0-20.74,12.75-38.49,30.84-45.87,7.76-3.16,12.8-10.73,12.26-19.09l-3.97-60.79h0l-.06-.94-.64-9.82c-.46-5.01-5.03-8.64-10.04-7.93-.17.02-.34.06-.51.08-3.86.57-7.67,1.3-11.42,2.16h0c-64.96,14.99-113.4,73.17-113.4,142.69,0,87.62,76.94,157.27,166.94,145.08Z"/>
    <path class="cls-7" d="M2679.36,1174.33c-8.1-59.78-55.4-107.34-115.14-115.71-73.09-10.24-137.02,37.63-152.31,104.09h.03c-.83,3.64-1.55,7.33-2.08,11.08-.68,4.73,2.79,9.05,7.55,9.37l66.13,4.23c7.84.5,14.97-4.18,17.94-11.45,7.12-17.4,24.58-29.47,44.74-28.56,10.82.49,20.74,4.83,28.41,11.67,1.49,1.33.58,3.8-1.41,3.87l-29.81,1.15c-2.81.11-5.33,2.04-5.87,4.79-.73,3.73,2.03,7.05,5.64,7.19l41.18,1.64c1.63.07,3.19.99,3.79,2.51,1.05,2.63-.82,5.41-3.56,5.52l-41.18,1.59c-2.81.11-5.33,2.04-5.87,4.79-.73,3.73,2.03,7.05,5.64,7.19l41.23,1.64c3.02.12,5.06,3.46,3.46,6.03-.74,1.18-2.03,1.95-3.47,2.01l-40.99,1.58c-2.81.11-5.33,2.04-5.87,4.79-.73,3.73,2.03,7.05,5.64,7.19l30.2,1.2c1.99.08,2.88,2.55,1.4,3.88-8.14,7.3-18.9,11.75-30.7,11.75-19.27,0-35.77-11.85-42.62-28.66-2.94-7.21-9.97-11.9-17.74-11.39l-56.49,3.69h0s-.87.06-.87.06l-9.13.6c-4.66.42-8.02,4.67-7.37,9.33.02.16.05.32.08.48.53,3.59,1.21,7.12,2.01,10.62h0c13.94,60.37,68,105.38,132.6,105.38,81.43,0,146.15-71.5,134.82-155.14Z"/>
    <path d="M2398.93,532.72c54.2,52.71,141.44,52.71,195.64.01,54.04-52.54,56.61-137.62,7.7-193.25-3.25-3.7-8.97-3.85-12.45-.37l-32.72,32.72,17.13,17.13c5.65,5.65,5.65,14.82,0,20.48l-63.19,63.19c-24.27,24.27-63.61,24.27-87.87,0l96.7-96.7,20.66-20.66,30.04-30.04c4.02-4.02,3.13-10.71-1.75-13.63-53.92-32.31-124.85-25.24-171.32,21.23-55.29,55.29-54.81,145.22,1.42,199.91Z"/>
  </g>
  <path class="cls-11" d="M3973.68,331.63c-50.79,52.22-51.05,136.21-.57,188.74,48.26,50.22,125.35,55.14,179.27,14.76,3.8-2.84,4.39-8.32,1.25-11.88l-42.93-48.81c-5.84-6.64-15.16-8.68-23.43-5.54-16.87,6.4-36.77,2.43-49.87-11.92-15.53-17-15.78-43.5-.54-60.77,17.56-19.91,47.97-20.62,66.45-2.14,13.11,13.11,16.56,32.22,10.35,48.48-3.15,8.25-.98,17.57,5.65,23.39l48.8,42.81c3.56,3.13,9.03,2.54,11.87-1.26,39.77-53.19,35.49-128.91-12.85-177.25-53.5-53.5-140.52-53.04-193.45,1.38Z"/>
  <path class="cls-3" d="M3806.62,1308.38c43.46-.09,83.52-20.7,109.92-54.43,10.78-13.77,18.33-29.01,22.8-44.85h.06c.84-2.99,1.55-6,2.16-9.02.04-.2.08-.39.12-.59.39-1.98.75-3.97,1.05-5.97.02-.14.04-.28.06-.42.27-1.85.5-3.7.69-5.56.03-.29.06-.57.09-.86.18-1.88.31-3.75.41-5.63.02-.38.04-.75.05-1.13.08-1.92.13-3.84.13-5.75,0-.15,0-.3,0-.45,0-1.97-.07-3.94-.17-5.91,0-.12,0-.23-.02-.35-.11-2.04-.27-4.08-.48-6.12-.02-.15-.03-.31-.05-.46-2.63-24.97-12.59-49.33-29.86-69.88-3.3-3.92-3.48-9.77-.05-13.88,39.45-47.2,41.2-114.38,3-163.18-26.4-33.73-66.46-54.34-109.92-54.43l-134.12-.28c-6.08-.01-11.05,4.95-11.05,11.03v67.63c0,5.76,5.33,10.46,11.07,10.5l137.02.93c24.21.16,41.65,23.93,40.85,45.77-.78,21.29-18.44,42.88-42.05,42.99l-135.71.65c-6.89.03-11.08,5.38-11.09,12.29l-.12,67.24c-.01,5.77,5.43,10.77,11.12,10.8l136.59.91c16.52.11,29.92,11.03,36.62,24.85.24.49.47.99.69,1.49.11.25.23.51.34.76.13.3.24.6.36.9,1.21,3.02,2.11,6.15,2.65,9.3,0,.01,0,.03,0,.04.11.62.2,1.24.27,1.87.01.12.03.23.04.35.06.54.12,1.08.16,1.63.02.24.03.48.05.72.03.44.05.88.06,1.32,0,.32,0,.65.01.97,0,.3,0,.6,0,.9,0,.46-.03.92-.06,1.37-.01.23-.02.45-.04.68-.04.58-.09,1.15-.16,1.73,0,.06-.01.13-.02.19-.63,5.37-2.28,10.71-4.79,15.64-.11.21-.21.41-.32.62-.2.37-.4.74-.61,1.11-.28.5-.57.99-.86,1.47-.06.09-.11.19-.17.28-2.54,4.08-5.7,7.79-9.37,10.91h.08c-6.7,5.73-15.11,9.4-24.56,9.46l-137.02.93c-5.74.04-11.06,4.74-11.06,10.5v67.63c0,6.08,4.96,11.04,11.04,11.03l134.12-.28Z"/>
  <path class="cls-7" d="M3954.07,580.75h-76.31c-4.99,0-9.03,4.04-9.03,9.03v8.59c-20.12-11.28-43.31-17.71-68.01-17.71-76.93,0-139.29,62.36-139.29,139.29,0,76.93,62.36,139.29,139.29,139.29,24.7,0,47.89-6.44,68.01-17.71v8.59c0,4.99,4.04,9.03,9.03,9.03h76.31c4.99,0,9.03-4.04,9.03-9.03v-260.33c0-4.99-4.04-9.03-9.03-9.03ZM3800.72,767.75c-26.4,0-47.8-21.4-47.8-47.8s21.4-47.8,47.8-47.8c26.4,0,47.8,21.4,47.8,47.8,0,26.4-21.4,47.8-47.8,47.8Z"/>
  <g>
    <path class="cls-1" d="M3939.64,1727.36c0-76.93-62.36-139.29-139.29-139.29s-139.29,62.36-139.29,139.29,62.36,139.29,139.29,139.29c76.93,0,139.29-62.36,139.29-139.29ZM3752.54,1727.36c0-26.4,21.4-47.8,47.8-47.8s47.8,21.4,47.8,47.8c0,26.4-21.4,47.8-47.8,47.8-26.4,0-47.8-21.4-47.8-47.8Z"/>
    <path class="cls-1" d="M3818.98,1639.06h79.43c7.41,0,13.43,6.02,13.43,13.43v392.06c0,.84-.68,1.52-1.52,1.52h-91.34c-.84,0-1.52-.68-1.52-1.52v-403.97c0-.84.68-1.52,1.52-1.52Z" transform="translate(5707.21 -2022.09) rotate(90)"/>
  </g>
  <path d="M3661.43,346.67l.2,96.43c.09,40.83,18.28,78.65,48.45,104.98,1.26.41,2.46,1.05,3.54,1.95,23.25,19.43,51.35,29.7,79.71,30.57.79.02,1.58.05,2.37.05.12,0,.25,0,.37,0,.07,0,.14,0,.21,0,1.97,0,3.94-.07,5.91-.17.12,0,.23,0,.35-.02,2.04-.11,4.08-.27,6.12-.48.15-.02.31-.03.46-.05,24.97-2.63,49.33-12.59,69.88-29.86,1.15-.96,2.46-1.63,3.84-2.04,30.13-26.32,48.31-64.12,48.39-104.93l.21-98.4-.17-35.59c-.03-6.89-5.38-11.08-12.29-11.09l-48.59-.09h-17.54c-5.76,0-10.46,5.33-10.5,11.06l-.93,137.02c-.16,24.04-23.6,41.4-45.31,40.86-.1,0-.19,0-.29,0-.3,0-.6,0-.9,0-.46,0-.92-.03-1.37-.06-.23-.01-.45-.02-.68-.04-.58-.04-1.15-.09-1.73-.16-.06,0-.13-.01-.19-.02-5.37-.63-10.71-2.28-15.64-4.79-.21-.11-.41-.21-.62-.32-.37-.2-.74-.4-1.11-.61-.5-.28-.99-.57-1.47-.86-.09-.06-.19-.11-.28-.17-4.08-2.54-7.79-5.7-10.91-9.37v.08c-5.73-6.7-9.4-15.11-9.46-24.56l-.93-137.02c-.03-4.92-3.5-9.52-8.11-10.74-.86-.15-1.75-.23-2.68-.23l-54.64-.1h-12.7c-.35,0-.7.02-1.05.05-5.27.65-9.62,5.74-9.65,11.05l-.25,37.64Z"/>
  <path d="M4233.11,808.98l-.2-96.43c-.09-40.83-18.28-78.65-48.45-104.98-1.26-.41-2.46-1.05-3.54-1.95-23.25-19.43-51.35-29.7-79.71-30.57-.79-.02-1.58-.05-2.37-.05-.12,0-.25,0-.37,0-.07,0-.14,0-.21,0-1.97,0-3.94.07-5.91.17-.12,0-.23,0-.35.02-2.04.11-4.08.27-6.12.48-.15.02-.31.03-.46.05-24.97,2.63-49.33,12.59-69.88,29.86-1.15.96-2.46,1.63-3.84,2.04-30.13,26.32-48.31,64.12-48.39,104.93l-.21,98.4.17,35.59c.03,6.89,5.38,11.08,12.29,11.09l48.59.09h17.54c5.76,0,10.46-5.33,10.5-11.06l.93-137.02c.16-24.04,23.6-41.4,45.31-40.86.1,0,.19,0,.29,0,.3,0,.6,0,.9,0,.46,0,.92.03,1.37.06.23.01.45.02.68.04.58.04,1.15.09,1.73.16.06,0,.13.01.19.02,5.37.63,10.71,2.28,15.64,4.79.21.11.41.21.62.32.37.2.74.4,1.11.61.5.28.99.57,1.47.86.09.06.19.11.28.17,4.08,2.54,7.79,5.7,10.91,9.37v-.08c5.73,6.7,9.4,15.11,9.46,24.56l.93,137.02c.03,4.92,3.5,9.52,8.11,10.74.86.15,1.75.23,2.68.23l54.64.1h12.7c.35,0,.7-.02,1.05-.05,5.27-.65,9.62-5.74,9.65-11.05l.25-37.64Z"/>
  <path class="cls-5" d="M3963.11,899.02l.2,96.43c.09,40.83,18.28,78.65,48.45,104.98,1.26.41,2.46,1.05,3.54,1.95,23.25,19.43,51.35,29.7,79.71,30.57.79.02,1.58.05,2.37.05.12,0,.25,0,.37,0,.07,0,.14,0,.21,0,1.97,0,3.94-.07,5.91-.17.12,0,.23,0,.35-.02,2.04-.11,4.08-.27,6.12-.48.15-.02.31-.03.46-.05,24.97-2.63,49.33-12.59,69.88-29.86,1.15-.96,2.46-1.63,3.84-2.04,30.13-26.32,48.31-64.12,48.39-104.93l.21-98.4-.17-35.59c-.03-6.89-5.38-11.08-12.29-11.09l-48.59-.09h-17.54c-5.76,0-10.46,5.33-10.5,11.06l-.93,137.02c-.16,24.04-23.6,41.4-45.31,40.86-.1,0-.19,0-.29,0-.3,0-.6,0-.9,0-.46,0-.92-.03-1.37-.06-.23-.01-.45-.02-.68-.04-.58-.04-1.15-.09-1.73-.16-.06,0-.13-.01-.19-.02-5.37-.63-10.71-2.28-15.64-4.79-.21-.11-.41-.21-.62-.32-.37-.2-.74-.4-1.11-.61-.5-.28-.99-.57-1.47-.86-.09-.06-.19-.11-.28-.17-4.08-2.54-7.79-5.7-10.91-9.37v.08c-5.73-6.7-9.4-15.11-9.46-24.56l-.93-137.02c-.03-4.92-3.5-9.52-8.11-10.74-.86-.15-1.75-.23-2.68-.23l-54.64-.1h-12.7c-.35,0-.7.02-1.05.05-5.27.65-9.62,5.74-9.65,11.05l-.25,37.64Z"/>
  <path class="cls-6" d="M4130.33,1213.73c-50.85-49.45-132.64-49.71-183.78-.56-48.9,47-53.69,122.07-14.37,174.56,2.77,3.7,8.1,4.27,11.57,1.22l47.53-41.81c6.46-5.69,8.45-14.77,5.4-22.81-6.23-16.43-2.36-35.8,11.6-48.56,16.56-15.12,42.36-15.36,59.18-.53,19.39,17.1,20.08,46.71,2.08,64.71-12.77,12.77-31.37,16.12-47.21,10.08-8.03-3.06-17.11-.95-22.77,5.51l-41.69,47.52c-3.04,3.47-2.47,8.8,1.23,11.56,51.8,38.73,125.52,34.56,172.6-12.51,52.1-52.1,51.65-136.84-1.34-188.37Z"/>
  <path class="cls-11" d="M4199.4,1809.09v-331.09c0-2.97-2.4-5.37-5.37-5.37h-78.28c-2.97,0-5.37,2.4-5.37,5.37v11.27c-18.98-10.64-40.85-16.73-64.15-16.73-72.57,0-131.39,58.83-131.39,131.39,0,72.57,58.83,131.39,131.39,131.39,23.3,0,45.17-6.09,64.15-16.73v132.6c0,2.97,2.4,5.37,5.37,5.37h36.19c26.21,0,47.46-21.25,47.46-47.46ZM4001.13,1603.94c0-24.9,20.19-45.09,45.09-45.09,24.9,0,45.09,20.19,45.09,45.09,0,24.9-20.19,45.09-45.09,45.09-24.9,0-45.09-20.19-45.09-45.09Z"/>
  <path d="M3903.29,1546.19c52.71-54.2,52.71-141.44.01-195.64-52.54-54.04-137.62-56.61-193.25-7.7-3.7,3.25-3.85,8.97-.37,12.45l32.72,32.72,17.13-17.13c5.65-5.65,14.82-5.65,20.48,0l63.19,63.19c24.27,24.26,24.27,63.61,0,87.87l-96.7-96.7-20.66-20.66-30.04-30.04c-4.02-4.02-10.71-3.13-13.63,1.75-32.31,53.92-25.24,124.85,21.23,171.32,55.29,55.29,145.22,54.81,199.91-1.42Z"/>
  <path class="cls-7" d="M3979.8,2151.82l96.43-.2c40.83-.09,78.65-18.28,104.98-48.45.41-1.26,1.05-2.46,1.95-3.54,19.43-23.25,29.7-51.35,30.57-79.71.02-.79.05-1.58.05-2.37,0-.12,0-.25,0-.37,0-.07,0-.14,0-.21,0-1.97-.07-3.94-.17-5.91,0-.12,0-.23-.02-.35-.11-2.04-.27-4.08-.48-6.12-.02-.15-.03-.31-.05-.46-2.63-24.97-12.59-49.33-29.86-69.88-.96-1.15-1.63-2.46-2.04-3.84-26.32-30.13-64.12-48.31-104.93-48.39l-98.4-.21-35.59.17c-6.89.03-11.08,5.38-11.09,12.29l-.09,48.59v17.54c0,5.76,5.33,10.46,11.06,10.5l137.02.93c24.04.16,41.4,23.6,40.86,45.31,0,.1,0,.19,0,.29,0,.3,0,.6,0,.9,0,.46-.03.92-.06,1.37-.01.23-.02.45-.04.68-.04.58-.09,1.15-.16,1.73,0,.06-.01.13-.02.19-.63,5.37-2.28,10.71-4.79,15.64-.11.21-.21.41-.32.62-.2.37-.4.74-.61,1.11-.28.5-.57.99-.86,1.47-.06.09-.11.19-.17.28-2.54,4.08-5.7,7.79-9.37,10.91h.08c-6.7,5.73-15.11,9.4-24.56,9.47l-137.02.93c-4.92.03-9.52,3.5-10.74,8.11-.15.86-.23,1.75-.23,2.68l-.1,54.64v12.7c0,.35.02.7.05,1.05.65,5.27,5.74,9.62,11.05,9.65l37.64.25Z"/>
  <path class="cls-5" d="M3661.05,1938.05l.2,101.06c.09,42.79,18.28,82.42,48.45,110.01,1.26.43,2.46,1.1,3.54,2.04,23.25,20.37,51.35,31.12,79.71,32.03.79.02,1.58.06,2.37.06.12,0,.25,0,.37,0,.07,0,.14,0,.21,0,1.97-.01,3.94-.07,5.91-.17.12,0,.23,0,.35-.02,2.04-.11,4.08-.29,6.12-.5.15-.02.31-.03.46-.05,24.97-2.76,49.33-13.19,69.88-31.29,1.14-1.01,2.46-1.7,3.84-2.14,30.13-27.58,48.31-67.2,48.39-109.96l.21-103.12-.17-37.3c-.03-7.22-5.38-11.61-12.29-11.62l-48.59-.09h-17.54c-5.76,0-10.46,5.58-10.5,11.59l-.93,143.58c-.16,25.2-23.6,43.38-45.31,42.81-.1,0-.19,0-.29,0-.3,0-.6,0-.9,0-.46-.01-.92-.03-1.37-.06-.23-.01-.45-.02-.68-.04-.58-.04-1.15-.1-1.73-.16-.06,0-.13-.02-.19-.02-5.37-.66-10.71-2.39-15.64-5.02-.21-.11-.41-.22-.62-.34-.37-.21-.74-.42-1.11-.63-.5-.29-.99-.59-1.47-.9-.09-.06-.19-.12-.28-.18-4.08-2.66-7.79-5.97-10.91-9.82v.09c-5.73-7.02-9.4-15.83-9.47-25.73l-.93-143.58c-.03-5.15-3.5-9.98-8.11-11.25-.86-.15-1.75-.24-2.68-.24l-54.64-.1h-12.7c-.35,0-.7.02-1.05.05-5.27.68-9.62,6.01-9.65,11.58l-.25,39.44Z"/>
  <g>
    <path d="M4080.21,2444.17c75.82,0,137.28-61.46,137.28-137.29,0-75.82-61.46-137.28-137.29-137.28-75.82,0-137.28,61.46-137.28,137.29,0,75.82,61.46,137.28,137.29,137.28ZM4080.21,2259.77c26.02,0,47.11,21.09,47.11,47.11,0,26.02-21.09,47.11-47.11,47.11-26.02,0-47.11-21.09-47.11-47.11,0-26.02,21.09-47.11,47.11-47.11Z"/>
    <path d="M3921.66,2169.69h78.28c7.31,0,13.24,5.93,13.24,13.24v386.41c0,.83-.67,1.5-1.5,1.5h-90.02c-.83,0-1.5-.67-1.5-1.5v-398.15c0-.83.67-1.5,1.5-1.5Z" transform="translate(7933.36 4740.52) rotate(180)"/>
  </g>
  <path class="cls-7" d="M3637.16,2326.91c1.06,76.28,63.31,138.55,139.6,139.62,76.06,1.07,138.6-57.81,143.39-132.41.32-4.96-3.65-9.15-8.62-9.15h-46.69s0,24.44,0,24.44c0,8.07-6.54,14.61-14.61,14.61h-90.19c-34.63,0-62.7-28.07-62.7-62.7h138.01s29.49,0,29.49,0h42.87c5.74,0,9.88-5.41,8.48-10.98-15.42-61.53-71.08-107.1-137.4-107.1-78.9,0-142.74,64.51-141.64,143.67Z"/>
  <path class="cls-10" d="M1437.7,2232.05c-74.64,1.04-135.7,61.72-137.19,136.35-1.42,71.36,50.88,130.79,119.21,140.61,4.81.69,9.21-2.85,9.52-7.7l4.25-66.48c.58-9.04-4.7-17.28-12.96-21-16.86-7.59-28.4-24.89-27.5-44.77,1.07-23.57,20.09-42.96,43.64-44.43,27.15-1.7,49.71,19.82,49.71,46.61,0,19-11.35,35.34-27.63,42.64-8.26,3.7-13.44,12.02-12.85,21.05l4.34,66.39c.32,4.85,4.71,8.38,9.52,7.69,67.37-9.73,119.13-67.7,119.13-137.76,0-77.54-63.4-140.27-141.18-139.18Z"/>
  <path d="M1258.97,2220.6l-96.43.2c-40.83.09-78.65,18.28-104.98,48.45-.41,1.26-1.05,2.46-1.95,3.54-19.43,23.25-29.7,51.35-30.57,79.71-.02.79-.05,1.58-.05,2.37,0,.12,0,.25,0,.37,0,.07,0,.14,0,.21,0,1.97.07,3.94.17,5.91,0,.12,0,.23.02.35.11,2.04.27,4.08.48,6.12.02.15.03.31.05.46,2.63,24.97,12.59,49.33,29.86,69.88.96,1.15,1.63,2.46,2.04,3.84,26.32,30.13,64.12,48.31,104.93,48.39l98.4.21,35.59-.17c6.89-.03,11.08-5.38,11.09-12.29l.09-48.59v-17.54c0-5.76-5.33-10.46-11.06-10.5l-137.02-.93c-24.04-.16-41.4-23.6-40.86-45.31,0-.1,0-.19,0-.29,0-.3,0-.6,0-.9,0-.46.03-.92.06-1.37.01-.23.02-.45.04-.68.04-.58.09-1.15.16-1.73,0-.06.01-.13.02-.19.63-5.37,2.28-10.71,4.79-15.64.11-.21.21-.41.32-.62.2-.37.4-.74.61-1.11.28-.5.57-.99.86-1.47.06-.09.11-.19.17-.28,2.54-4.08,5.7-7.79,9.37-10.91h-.08c6.7-5.73,15.11-9.4,24.56-9.47l137.02-.93c4.92-.03,9.52-3.5,10.74-8.11.15-.86.23-1.75.23-2.68l.1-54.64v-12.7c0-.35-.02-.7-.05-1.05-.65-5.27-5.74-9.62-11.05-9.65l-37.64-.25Z"/>
  <path class="cls-2" d="M1024.89,2516.74v-76.31c0-4.99-4.04-9.03-9.03-9.03h-8.59c11.28-20.12,17.71-43.31,17.71-68.01,0-76.93-62.36-139.29-139.29-139.29-76.93,0-139.29,62.36-139.29,139.29,0,24.7,6.44,47.89,17.71,68.01h-8.59c-4.99,0-9.03,4.04-9.03,9.03v76.31c0,4.99,4.04,9.03,9.03,9.03h260.33c4.99,0,9.03-4.04,9.03-9.03ZM837.89,2363.38c0-26.4,21.4-47.8,47.8-47.8,26.4,0,47.8,21.4,47.8,47.8,0,26.4-21.4,47.8-47.8,47.8-26.4,0-47.8-21.4-47.8-47.8Z"/>
  <path d="M745.01,2350.09c-8.71-64.33-59.62-115.51-123.9-124.51-78.65-11.02-147.45,40.5-163.9,112.01h.04c-.9,3.92-1.66,7.89-2.24,11.92-.73,5.09,3,9.73,8.12,10.09l71.16,4.55c8.43.54,16.11-4.5,19.31-12.32,7.66-18.73,26.45-31.72,48.15-30.73,11.65.53,22.32,5.2,30.57,12.55,1.6,1.43.63,4.09-1.51,4.17l-32.07,1.23c-3.02.12-5.74,2.19-6.32,5.16-.78,4.02,2.18,7.58,6.06,7.74l44.31,1.77c1.76.07,3.43,1.07,4.08,2.7,1.13,2.83-.88,5.82-3.83,5.94l-44.31,1.71c-3.02.12-5.74,2.19-6.32,5.16-.78,4.02,2.18,7.58,6.06,7.74l44.37,1.77c3.25.13,5.45,3.73,3.72,6.48-.79,1.27-2.18,2.1-3.73,2.16l-44.11,1.7c-3.02.12-5.74,2.19-6.32,5.16-.78,4.02,2.18,7.58,6.06,7.74l32.5,1.3c2.14.09,3.1,2.74,1.5,4.17-8.76,7.86-20.34,12.65-33.03,12.65-20.74,0-38.49-12.75-45.87-30.84-3.16-7.76-10.73-12.8-19.09-12.26l-60.79,3.97h0s-.94.06-.94.06l-9.82.64c-5.01.46-8.64,5.03-7.93,10.04.02.17.06.34.08.51.57,3.86,1.3,7.67,2.16,11.42h0c15,64.96,73.17,113.4,142.69,113.4,87.62,0,157.27-76.94,145.08-166.94Z"/>
  <g>
    <path class="cls-8" d="M3222.42,2401.85c0,76.93,62.36,139.29,139.29,139.29,76.93,0,139.29-62.36,139.29-139.29,0-76.93-62.36-139.29-139.29-139.29-76.93,0-139.29,62.36-139.29,139.29ZM3409.52,2401.85c0,26.4-21.4,47.8-47.8,47.8-26.4,0-47.8-21.4-47.8-47.8,0-26.4,21.4-47.8,47.8-47.8,26.4,0,47.8,21.4,47.8,47.8Z"/>
    <path class="cls-8" d="M3251.74,2083.15h79.43c7.41,0,13.43,6.02,13.43,13.43v392.06c0,.84-.68,1.52-1.52,1.52h-91.34c-.84,0-1.52-.68-1.52-1.52v-403.97c0-.84.68-1.52,1.52-1.52Z" transform="translate(1010.76 5584.06) rotate(-90)"/>
  </g>
  <path d="M2817.47,2239.24c-43.46.09-83.52,20.7-109.92,54.43-10.78,13.77-18.33,29.01-22.8,44.85h-.06c-.84,2.99-1.55,6-2.16,9.02-.04.2-.08.39-.12.59-.39,1.98-.75,3.97-1.05,5.97-.02.14-.04.28-.06.42-.27,1.85-.5,3.7-.69,5.56-.03.29-.06.57-.09.86-.18,1.88-.31,3.75-.41,5.63-.02.38-.04.75-.05,1.13-.08,1.92-.13,3.84-.13,5.75,0,.15,0,.3,0,.45,0,1.97.07,3.94.17,5.91,0,.12,0,.23.02.35.11,2.04.27,4.08.48,6.12.02.15.03.31.05.46,2.63,24.97,12.59,49.33,29.86,69.88,3.3,3.92,3.48,9.77.05,13.88-39.45,47.2-41.2,114.38-3,163.18,26.4,33.73,66.46,54.34,109.92,54.43l134.12.28c6.08.01,11.05-4.95,11.05-11.03v-67.63c0-5.76-5.33-10.46-11.07-10.5l-137.02-.93c-24.21-.16-41.65-23.93-40.85-45.77.78-21.29,18.44-42.88,42.05-42.99l135.71-.65c6.89-.03,11.08-5.38,11.09-12.29l.12-67.24c.01-5.77-5.43-10.77-11.12-10.8l-136.59-.91c-16.52-.11-29.92-11.03-36.62-24.85-.24-.49-.47-.99-.69-1.49-.11-.25-.23-.51-.34-.76-.13-.3-.24-.6-.36-.9-1.21-3.02-2.11-6.15-2.65-9.3,0-.01,0-.03,0-.04-.11-.62-.2-1.24-.27-1.87-.01-.12-.03-.23-.04-.35-.06-.54-.12-1.08-.16-1.63-.02-.24-.03-.48-.05-.72-.03-.44-.05-.88-.06-1.32,0-.32,0-.65-.01-.97,0-.3,0-.6,0-.9,0-.46.03-.92.06-1.37.01-.23.02-.45.04-.68.04-.58.09-1.15.16-1.73,0-.06.01-.13.02-.19.63-5.37,2.28-10.71,4.79-15.64.11-.21.21-.41.32-.62.2-.37.4-.74.61-1.11.28-.5.57-.99.86-1.47.06-.09.11-.19.17-.28,2.54-4.08,5.7-7.79,9.37-10.91h-.08c6.7-5.73,15.11-9.4,24.56-9.47l137.02-.93c5.74-.04,11.06-4.74,11.06-10.5v-67.63c0-6.08-4.97-11.04-11.04-11.03l-134.12.28Z"/>
  <path class="cls-11" d="M2962.66,2320.12v331.09c0,2.97,2.4,5.37,5.37,5.37h78.28c2.97,0,5.37-2.4,5.37-5.37v-11.27c18.98,10.64,40.85,16.73,64.15,16.73,72.57,0,131.39-58.83,131.39-131.39,0-72.57-58.83-131.39-131.39-131.39-23.3,0-45.17,6.09-64.15,16.73v-132.6c0-2.97-2.4-5.37-5.37-5.37h-36.19c-26.21,0-47.46,21.25-47.46,47.46ZM3160.93,2525.28c0,24.9-20.19,45.09-45.09,45.09-24.9,0-45.09-20.19-45.09-45.09,0-24.9,20.19-45.09,45.09-45.09,24.9,0,45.09,20.19,45.09,45.09Z"/>
  <path class="cls-3" d="M2373.29,2237.18l-96.43.2c-40.83.09-78.65,18.28-104.98,48.45-.41,1.26-1.05,2.46-1.95,3.54-19.43,23.25-29.7,51.35-30.57,79.71-.02.79-.05,1.58-.05,2.37,0,.12,0,.25,0,.37,0,.07,0,.14,0,.21,0,1.97.07,3.94.17,5.91,0,.12,0,.23.02.35.11,2.04.27,4.08.48,6.12.02.15.03.31.05.46,2.63,24.97,12.59,49.33,29.86,69.88.96,1.15,1.63,2.46,2.04,3.84,26.32,30.13,64.12,48.31,104.93,48.39l98.4.21,35.59-.17c6.89-.03,11.08-5.38,11.09-12.29l.09-48.59v-17.54c0-5.76-5.33-10.46-11.06-10.5l-137.02-.93c-24.04-.16-41.4-23.6-40.86-45.31,0-.1,0-.19,0-.29,0-.3,0-.6,0-.9,0-.46.03-.92.06-1.37.01-.23.02-.45.04-.68.04-.58.09-1.15.16-1.73,0-.06.01-.13.02-.19.63-5.37,2.28-10.71,4.79-15.64.11-.21.21-.41.32-.62.2-.37.4-.74.61-1.11.28-.5.57-.99.86-1.47.06-.09.11-.19.17-.28,2.54-4.08,5.7-7.79,9.37-10.91h-.08c6.7-5.73,15.11-9.4,24.56-9.47l137.02-.93c4.92-.03,9.52-3.5,10.74-8.11.15-.86.23-1.75.23-2.68l.1-54.64v-12.7c0-.35-.02-.7-.05-1.05-.65-5.27-5.74-9.62-11.05-9.65l-37.64-.25Z"/>
  <path d="M2453.41,2507.18l96.43-.2c40.83-.09,78.65-18.28,104.98-48.45.41-1.26,1.05-2.46,1.95-3.54,19.43-23.25,29.7-51.35,30.57-79.71.02-.79.05-1.58.05-2.37,0-.12,0-.25,0-.37,0-.07,0-.14,0-.21,0-1.97-.07-3.94-.17-5.91,0-.12,0-.23-.02-.35-.11-2.04-.27-4.08-.48-6.12-.02-.15-.03-.31-.05-.46-2.63-24.97-12.59-49.33-29.86-69.88-.96-1.15-1.63-2.46-2.04-3.84-26.32-30.13-64.12-48.31-104.93-48.39l-98.4-.21-35.59.17c-6.89.03-11.08,5.38-11.09,12.29l-.09,48.59v17.54c0,5.76,5.33,10.46,11.06,10.5l137.02.93c24.04.16,41.4,23.6,40.86,45.31,0,.1,0,.19,0,.29,0,.3,0,.6,0,.9,0,.46-.03.92-.06,1.37-.01.23-.02.45-.04.68-.04.58-.09,1.15-.16,1.73,0,.06-.01.13-.02.19-.63,5.37-2.28,10.71-4.79,15.64-.11.21-.21.41-.32.62-.2.37-.4.74-.61,1.11-.28.5-.57.99-.86,1.47-.06.09-.11.19-.17.28-2.54,4.08-5.7,7.79-9.37,10.91h.08c-6.7,5.73-15.11,9.4-24.56,9.47l-137.02.93c-4.92.03-9.52,3.5-10.74,8.11-.15.86-.23,1.75-.23,2.68l-.1,54.64v12.7c0,.35.02.7.05,1.05.65,5.27,5.74,9.62,11.05,9.65l37.64.25Z"/>
  <path class="cls-7" d="M1906.74,2510.55l96.43-.2c40.83-.09,78.65-18.28,104.98-48.45.41-1.26,1.05-2.46,1.95-3.54,19.43-23.25,29.7-51.35,30.57-79.71.02-.79.05-1.58.05-2.37,0-.12,0-.25,0-.37,0-.07,0-.14,0-.21,0-1.97-.07-3.94-.17-5.91,0-.12,0-.23-.02-.35-.11-2.04-.27-4.08-.48-6.12-.02-.15-.03-.31-.05-.46-2.63-24.97-12.59-49.33-29.86-69.88-.96-1.15-1.63-2.46-2.04-3.84-26.32-30.13-64.12-48.31-104.93-48.39l-98.4-.21-35.59.17c-6.89.03-11.08,5.38-11.09,12.29l-.09,48.59v17.54c0,5.76,5.33,10.46,11.06,10.5l137.02.93c24.04.16,41.4,23.6,40.86,45.31,0,.1,0,.19,0,.29,0,.3,0,.6,0,.9,0,.46-.03.92-.06,1.37-.01.23-.02.45-.04.68-.04.58-.09,1.15-.16,1.73,0,.06-.01.13-.02.19-.63,5.37-2.28,10.71-4.79,15.64-.11.21-.21.41-.32.62-.2.37-.4.74-.61,1.11-.28.5-.57.99-.86,1.47-.06.09-.11.19-.17.28-2.54,4.08-5.7,7.79-9.37,10.91h.08c-6.7,5.73-15.11,9.4-24.56,9.47l-137.02.93c-4.92.03-9.52,3.5-10.74,8.11-.15.86-.23,1.75-.23,2.68l-.1,54.64v12.7c0,.35.02.7.05,1.05.65,5.27,5.74,9.62,11.05,9.65l37.64.25Z"/>
  <path class="cls-5" d="M1587.99,2296.78l.2,101.06c.09,42.79,18.28,82.42,48.45,110.01,1.26.43,2.46,1.1,3.54,2.04,23.25,20.37,51.35,31.12,79.71,32.03.79.02,1.58.06,2.37.06.12,0,.25,0,.37,0,.07,0,.14,0,.21,0,1.97-.01,3.94-.07,5.91-.17.12,0,.23,0,.35-.02,2.04-.11,4.08-.29,6.12-.5.15-.02.31-.03.46-.05,24.97-2.76,49.33-13.19,69.88-31.29,1.14-1.01,2.46-1.7,3.84-2.14,30.13-27.58,48.31-67.2,48.39-109.96l.21-103.12-.17-37.3c-.03-7.22-5.38-11.61-12.29-11.62l-48.59-.09h-17.54c-5.76,0-10.46,5.58-10.5,11.59l-.93,143.58c-.16,25.2-23.6,43.38-45.31,42.81-.1,0-.19,0-.29,0-.3,0-.6,0-.9,0-.46-.01-.92-.03-1.37-.06-.23-.01-.45-.02-.68-.04-.58-.04-1.15-.1-1.73-.16-.06,0-.13-.02-.19-.02-5.37-.66-10.71-2.39-15.64-5.02-.21-.11-.41-.22-.62-.34-.37-.21-.74-.42-1.11-.63-.5-.29-.99-.59-1.47-.9-.09-.06-.19-.12-.28-.18-4.08-2.66-7.79-5.97-10.91-9.82v.09c-5.73-7.02-9.4-15.83-9.47-25.73l-.93-143.58c-.03-5.15-3.5-9.98-8.11-11.25-.86-.15-1.75-.24-2.68-.24l-54.64-.1h-12.7c-.35,0-.7.02-1.05.05-5.27.68-9.62,6.01-9.65,11.58l-.25,39.44Z"/>
  <g>
    <path class="cls-1" d="M290.23,2221.65c-76.93,0-139.29,62.36-139.29,139.29,0,76.93,62.36,139.29,139.29,139.29s139.29-62.36,139.29-139.29c0-76.93-62.36-139.29-139.29-139.29ZM290.23,2408.74c-26.4,0-47.8-21.4-47.8-47.8,0-26.4,21.4-47.8,47.8-47.8,26.4,0,47.8,21.4,47.8,47.8,0,26.4-21.4,47.8-47.8,47.8Z"/>
    <path class="cls-1" d="M359.76,2093.13h79.43c7.41,0,13.43,6.02,13.43,13.43v392.06c0,.84-.68,1.52-1.52,1.52h-91.34c-.84,0-1.52-.68-1.52-1.52v-403.97c0-.84.68-1.52,1.52-1.52Z"/>
  </g>
  <path d="M452.84,1816.69c-.09-43.46-20.7-83.52-54.43-109.92-13.77-10.78-29.01-18.33-44.85-22.8v-.06c-2.99-.84-6-1.55-9.02-2.16-.2-.04-.39-.08-.59-.12-1.98-.39-3.97-.75-5.97-1.05-.14-.02-.28-.04-.42-.06-1.85-.27-3.7-.5-5.56-.69-.29-.03-.57-.06-.86-.09-1.88-.18-3.75-.31-5.63-.41-.38-.02-.75-.04-1.13-.05-1.92-.08-3.84-.13-5.75-.13-.15,0-.3,0-.45,0-1.97,0-3.94.07-5.91.17-.12,0-.23,0-.35.02-2.04.11-4.08.27-6.12.48-.15.02-.31.03-.46.05-24.97,2.63-49.33,12.59-69.88,29.86-3.92,3.3-9.77,3.48-13.88.05-47.2-39.45-114.38-41.2-163.18-3-33.73,26.4-54.34,66.46-54.43,109.92l-.28,134.12c-.01,6.08,4.95,11.05,11.03,11.05h67.63c5.76,0,10.46-5.33,10.5-11.07l.93-137.02c.16-24.21,23.93-41.65,45.77-40.85,21.29.78,42.88,18.44,42.99,42.05l.65,135.71c.03,6.89,5.38,11.08,12.29,11.09l67.24.12c5.77.01,10.77-5.43,10.8-11.12l.91-136.59c.11-16.52,11.03-29.92,24.85-36.62.49-.24.99-.47,1.49-.69.25-.11.51-.23.76-.34.3-.13.6-.24.9-.36,3.02-1.21,6.15-2.11,9.3-2.65.01,0,.03,0,.04,0,.62-.11,1.24-.2,1.87-.27.12-.01.23-.03.35-.04.54-.06,1.08-.12,1.63-.16.24-.02.48-.03.72-.05.44-.03.88-.05,1.32-.06.32,0,.65,0,.97-.01.3,0,.6,0,.9,0,.46,0,.92.03,1.37.06.23.01.45.02.68.04.58.04,1.15.09,1.73.16.06,0,.13.01.19.02,5.37.63,10.71,2.28,15.64,4.79.21.11.41.21.62.32.37.2.74.4,1.11.61.5.28.99.57,1.47.86.09.06.19.11.28.17,4.08,2.54,7.79,5.7,10.91,9.37v-.08c5.73,6.7,9.4,15.11,9.47,24.56l.93,137.02c.04,5.74,4.74,11.06,10.5,11.06h67.63c6.08,0,11.04-4.96,11.03-11.04l-.28-134.12Z"/>
  <path class="cls-11" d="M371.96,1961.89H40.87c-2.97,0-5.37,2.4-5.37,5.37v78.28c0,2.97,2.4,5.37,5.37,5.37h11.27c-10.64,18.98-16.73,40.85-16.73,64.15,0,72.57,58.83,131.39,131.39,131.39,72.57,0,131.39-58.83,131.39-131.39,0-23.3-6.09-45.17-16.73-64.15h132.6c2.97,0,5.37-2.4,5.37-5.37v-36.19c0-26.21-21.25-47.46-47.46-47.46ZM166.8,2160.15c-24.9,0-45.09-20.19-45.09-45.09,0-24.9,20.19-45.09,45.09-45.09s45.09,20.19,45.09,45.09-20.19,45.09-45.09,45.09Z"/>
  <path class="cls-8" d="M454.9,1372.52l-.2-96.43c-.09-40.83-18.28-78.65-48.45-104.98-1.26-.41-2.46-1.05-3.54-1.95-23.25-19.43-51.35-29.7-79.71-30.57-.79-.02-1.58-.05-2.37-.05-.12,0-.25,0-.37,0-.07,0-.14,0-.21,0-1.97,0-3.94.07-5.91.17-.12,0-.23,0-.35.02-2.04.11-4.08.27-6.12.48-.15.02-.31.03-.46.05-24.97,2.63-49.33,12.59-69.88,29.86-1.15.96-2.46,1.63-3.84,2.04-30.13,26.32-48.31,64.12-48.39,104.93l-.21,98.4.17,35.59c.03,6.89,5.38,11.08,12.29,11.09l48.59.09h17.54c5.76,0,10.46-5.33,10.5-11.06l.93-137.02c.16-24.04,23.6-41.4,45.31-40.86.1,0,.19,0,.29,0,.3,0,.6,0,.9,0,.46,0,.92.03,1.37.06.23.01.45.02.68.04.58.04,1.15.09,1.73.16.06,0,.13.01.19.02,5.37.63,10.71,2.28,15.64,4.79.21.11.41.21.62.32.37.2.74.4,1.11.61.5.28.99.57,1.47.86.09.06.19.11.28.17,4.08,2.54,7.79,5.7,10.91,9.37v-.08c5.73,6.7,9.4,15.11,9.46,24.56l.93,137.02c.03,4.92,3.5,9.52,8.11,10.74.86.15,1.75.23,2.68.23l54.64.1h12.7c.35,0,.7-.02,1.05-.05,5.27-.65,9.62-5.74,9.65-11.05l.25-37.64Z"/>
  <path d="M184.9,1452.64l.2,96.43c.09,40.83,18.28,78.65,48.45,104.98,1.26.41,2.46,1.05,3.54,1.95,23.25,19.43,51.35,29.7,79.71,30.57.79.02,1.58.05,2.37.05.12,0,.25,0,.37,0,.07,0,.14,0,.21,0,1.97,0,3.94-.07,5.91-.17.12,0,.23,0,.35-.02,2.04-.11,4.08-.27,6.12-.48.15-.02.31-.03.46-.05,24.97-2.63,49.33-12.59,69.88-29.86,1.15-.96,2.46-1.63,3.84-2.04,30.13-26.32,48.31-64.12,48.39-104.93l.21-98.4-.17-35.59c-.03-6.89-5.38-11.08-12.29-11.09l-48.59-.09h-17.54c-5.76,0-10.46,5.33-10.5,11.06l-.93,137.02c-.16,24.04-23.6,41.4-45.31,40.86-.1,0-.19,0-.29,0-.3,0-.6,0-.9,0-.46,0-.92-.03-1.37-.06-.23-.01-.45-.02-.68-.04-.58-.04-1.15-.09-1.73-.16-.06,0-.13-.01-.19-.02-5.37-.63-10.71-2.28-15.64-4.79-.21-.11-.41-.21-.62-.32-.37-.2-.74-.4-1.11-.61-.5-.28-.99-.57-1.47-.86-.09-.06-.19-.11-.28-.17-4.08-2.54-7.79-5.7-10.91-9.37v.08c-5.73-6.7-9.4-15.11-9.46-24.56l-.93-137.02c-.03-4.92-3.5-9.52-8.11-10.74-.86-.15-1.75-.23-2.68-.23l-54.64-.1h-12.7c-.35,0-.7.02-1.05.05-5.27.65-9.62,5.74-9.65,11.05l-.25,37.64Z"/>
  <path class="cls-7" d="M181.53,905.97l.2,96.43c.09,40.83,18.28,78.65,48.45,104.98,1.26.41,2.46,1.05,3.54,1.95,23.25,19.43,51.35,29.7,79.71,30.57.79.02,1.58.05,2.37.05.12,0,.25,0,.37,0,.07,0,.14,0,.21,0,1.97,0,3.94-.07,5.91-.17.12,0,.23,0,.35-.02,2.04-.11,4.08-.27,6.12-.48.15-.02.31-.03.46-.05,24.97-2.63,49.33-12.59,69.88-29.86,1.15-.96,2.46-1.63,3.84-2.04,30.13-26.32,48.31-64.12,48.39-104.93l.21-98.4-.17-35.59c-.03-6.89-5.38-11.08-12.29-11.09l-48.59-.09h-17.54c-5.76,0-10.46,5.33-10.5,11.06l-.93,137.02c-.16,24.04-23.6,41.4-45.31,40.86-.1,0-.19,0-.29,0-.3,0-.6,0-.9,0-.46,0-.92-.03-1.37-.06-.23-.01-.45-.02-.68-.04-.58-.04-1.15-.09-1.73-.16-.06,0-.13-.01-.19-.02-5.37-.63-10.71-2.28-15.64-4.79-.21-.11-.41-.21-.62-.32-.37-.2-.74-.4-1.11-.61-.5-.28-.99-.57-1.47-.86-.09-.06-.19-.11-.28-.17-4.08-2.54-7.79-5.7-10.91-9.37v.08c-5.73-6.7-9.4-15.11-9.46-24.56l-.93-137.02c-.03-4.92-3.5-9.52-8.11-10.74-.86-.15-1.75-.23-2.68-.23l-54.64-.1h-12.7c-.35,0-.7.02-1.05.05-5.27.65-9.62,5.74-9.65,11.05l-.25,37.64Z"/>
  <path class="cls-5" d="M395.3,587.22l-101.06.2c-42.79.09-82.42,18.28-110.01,48.45-.43,1.26-1.1,2.46-2.04,3.54-20.37,23.25-31.12,51.35-32.03,79.71-.02.79-.06,1.58-.06,2.37,0,.12,0,.25,0,.37,0,.07,0,.14,0,.21.01,1.97.07,3.94.17,5.91,0,.12,0,.23.02.35.11,2.04.29,4.08.5,6.12.02.15.03.31.05.46,2.76,24.97,13.19,49.33,31.29,69.88,1.01,1.14,1.7,2.46,2.14,3.84,27.58,30.13,67.2,48.31,109.96,48.39l103.12.21,37.3-.17c7.22-.03,11.61-5.38,11.62-12.29l.09-48.59v-17.54c0-5.76-5.58-10.46-11.59-10.5l-143.58-.93c-25.2-.16-43.38-23.6-42.81-45.31,0-.1,0-.19,0-.29,0-.3,0-.6,0-.9.01-.46.03-.92.06-1.37.01-.23.02-.45.04-.68.04-.58.1-1.15.16-1.73,0-.06.02-.13.02-.19.66-5.37,2.39-10.71,5.02-15.64.11-.21.22-.41.34-.62.21-.37.42-.74.63-1.11.29-.5.59-.99.9-1.47.06-.09.12-.19.18-.28,2.66-4.08,5.97-7.79,9.82-10.91h-.09c7.02-5.73,15.83-9.4,25.73-9.47l143.58-.93c5.15-.03,9.98-3.5,11.25-8.11.15-.86.24-1.75.24-2.68l.1-54.64v-12.7c0-.35-.02-.7-.05-1.05-.68-5.27-6.01-9.62-11.58-9.65l-39.44-.25Z"/>
  <g>
    <path class="cls-1" d="M270.48,288.3c-76.93,0-139.29,62.36-139.29,139.29,0,76.93,62.36,139.29,139.29,139.29s139.29-62.36,139.29-139.29c0-76.93-62.36-139.29-139.29-139.29ZM270.48,475.4c-26.4,0-47.8-21.4-47.8-47.8,0-26.4,21.4-47.8,47.8-47.8,26.4,0,47.8,21.4,47.8,47.8,0,26.4-21.4,47.8-47.8,47.8Z"/>
    <path class="cls-1" d="M340,159.78h79.43c7.41,0,13.43,6.02,13.43,13.43v392.06c0,.84-.68,1.52-1.52,1.52h-91.34c-.84,0-1.52-.68-1.52-1.52V161.3c0-.84.68-1.52,1.52-1.52Z"/>
  </g>
  <path class="cls-11" d="M339.05,17.5H7.96c-2.97,0-5.37,2.4-5.37,5.37v78.28c0,2.97,2.4,5.37,5.37,5.37h11.27C8.59,125.5,2.5,147.37,2.5,170.67c0,72.57,58.83,131.39,131.39,131.39,72.57,0,131.39-58.83,131.39-131.39,0-23.3-6.09-45.17-16.73-64.15h132.6c2.97,0,5.37-2.4,5.37-5.37v-36.19c0-26.21-21.25-47.46-47.46-47.46ZM133.89,215.76c-24.9,0-45.09-20.19-45.09-45.09,0-24.9,20.19-45.09,45.09-45.09s45.09,20.19,45.09,45.09-20.19,45.09-45.09,45.09Z"/>
  <path class="cls-10" d="M2017.72,175.21c-1.04-74.64-61.72-135.7-136.35-137.19s-130.79,50.88-140.61,119.21c-.69,4.81,2.85,9.21,7.7,9.52l66.48,4.25c9.04.58,17.28-4.7,21-12.96,7.59-16.86,24.89-28.4,44.77-27.5,23.57,1.07,42.96,20.09,44.43,43.64,1.7,27.15-19.82,49.71-46.61,49.71-19,0-35.34-11.35-42.64-27.63-3.7-8.26-12.02-13.44-21.05-12.85l-66.39,4.34c-4.85.32-8.38,4.71-7.69,9.52,9.73,67.37,67.7,119.13,137.76,119.13,77.54,0,140.27-63.4,139.18-141.18Z"/>
  <path class="cls-11" d="M1691.94,14.47l-96.43.2c-40.83.09-78.65,18.28-104.98,48.45-.41,1.26-1.05,2.46-1.95,3.54-19.43,23.25-29.7,51.35-30.57,79.71-.02.79-.05,1.58-.05,2.37,0,.12,0,.25,0,.37,0,.07,0,.14,0,.21,0,1.97.07,3.94.17,5.91,0,.12,0,.23.02.35.11,2.04.27,4.08.48,6.12.02.15.03.31.05.46,2.63,24.97,12.59,49.33,29.86,69.88.96,1.14,1.63,2.46,2.04,3.84,26.32,30.13,64.12,48.31,104.93,48.39l98.4.21,35.59-.17c6.89-.03,11.08-5.38,11.09-12.29l.09-48.59v-17.54c0-5.76-5.33-10.46-11.06-10.5l-137.02-.93c-24.04-.16-41.4-23.6-40.86-45.31,0-.1,0-.19,0-.29,0-.3,0-.6,0-.9,0-.46.03-.92.06-1.37.01-.23.02-.45.04-.68.04-.58.09-1.15.16-1.73,0-.06.01-.13.02-.19.63-5.37,2.28-10.71,4.79-15.64.11-.21.21-.41.32-.62.2-.37.4-.74.61-1.11.28-.5.57-.99.86-1.47.06-.09.11-.19.17-.28,2.54-4.08,5.7-7.79,9.37-10.91h-.08c6.7-5.73,15.11-9.4,24.56-9.47l137.02-.93c4.92-.03,9.52-3.5,10.74-8.11.15-.86.23-1.75.23-2.68l.1-54.64v-12.7c0-.35-.02-.7-.05-1.05-.65-5.27-5.74-9.62-11.05-9.65l-37.64-.25Z"/>
  <path d="M1009.43,153.29c.09,43.46,20.7,83.52,54.43,109.92,13.77,10.78,29.01,18.33,44.85,22.8v.06c2.99.84,6,1.55,9.02,2.16.2.04.39.08.59.12,1.98.39,3.97.75,5.97,1.05.14.02.28.04.42.06,1.85.27,3.7.5,5.56.69.29.03.57.06.86.09,1.88.18,3.75.31,5.63.41.38.02.75.04,1.13.05,1.92.08,3.84.13,5.75.13.15,0,.3,0,.45,0,1.97,0,3.94-.07,5.91-.17.12,0,.23,0,.35-.02,2.04-.11,4.08-.27,6.12-.48.15-.02.31-.03.46-.05,24.97-2.63,49.33-12.59,69.88-29.86,3.92-3.3,9.77-3.48,13.88-.05,47.2,39.45,114.38,41.2,163.18,3,33.73-26.4,54.34-66.46,54.43-109.92l.28-134.12c.01-6.08-4.95-11.05-11.03-11.05h-67.63c-5.76,0-10.46,5.33-10.5,11.07l-.93,137.02c-.16,24.21-23.93,41.65-45.77,40.85-21.29-.78-42.88-18.44-42.99-42.05l-.65-135.71c-.03-6.89-5.38-11.08-12.29-11.09l-67.24-.12c-5.77-.01-10.77,5.43-10.8,11.12l-.91,136.59c-.11,16.52-11.03,29.92-24.85,36.62-.49.24-.99.47-1.49.69-.25.11-.51.23-.76.34-.3.13-.6.24-.9.36-3.02,1.21-6.15,2.11-9.3,2.65-.01,0-.03,0-.04,0-.62.11-1.24.2-1.87.27-.12.01-.23.03-.35.04-.54.06-1.08.12-1.63.16-.24.02-.48.03-.72.05-.44.03-.88.05-1.32.06-.32,0-.65,0-.97.01-.3,0-.6,0-.9,0-.46,0-.92-.03-1.37-.06-.23-.01-.45-.02-.68-.04-.58-.04-1.15-.09-1.73-.16-.06,0-.13-.01-.19-.02-5.37-.63-10.71-2.28-15.64-4.79-.21-.11-.41-.21-.62-.32-.37-.2-.74-.4-1.11-.61-.5-.28-.99-.57-1.47-.86-.09-.06-.19-.11-.28-.17-4.08-2.54-7.79-5.7-10.91-9.37v.08c-5.73-6.7-9.4-15.11-9.47-24.56l-.93-137.02c-.04-5.74-4.74-11.06-10.5-11.06h-67.63c-6.08,0-11.04,4.97-11.03,11.04l.28,134.12Z"/>
  <path class="cls-5" d="M482.3,276.52l101.06-.2c42.79-.09,82.42-18.28,110.01-48.45.43-1.26,1.1-2.46,2.04-3.54,20.37-23.25,31.12-51.35,32.03-79.71.02-.79.06-1.58.06-2.37,0-.12,0-.25,0-.37,0-.07,0-.14,0-.21-.01-1.97-.07-3.94-.17-5.91,0-.12,0-.23-.02-.35-.11-2.04-.29-4.08-.5-6.12-.02-.15-.03-.31-.05-.46-2.76-24.97-13.19-49.33-31.29-69.88-1.01-1.14-1.7-2.46-2.14-3.84-27.58-30.13-67.2-48.31-109.96-48.39l-103.12-.21-37.3.17c-7.22.03-11.61,5.38-11.62,12.29l-.09,48.59v17.54c0,5.76,5.58,10.46,11.59,10.5l143.58.93c25.2.16,43.38,23.6,42.81,45.31,0,.1,0,.19,0,.29,0,.3,0,.6,0,.9-.01.46-.03.92-.06,1.37-.01.23-.02.45-.04.68-.04.58-.1,1.15-.16,1.73,0,.06-.02.13-.02.19-.66,5.37-2.39,10.71-5.02,15.64-.11.21-.22.41-.34.62-.21.37-.42.74-.63,1.11-.29.5-.59.99-.9,1.47-.06.09-.12.19-.18.28-2.66,4.08-5.97,7.79-9.82,10.91h.09c-7.02,5.73-15.83,9.4-25.73,9.47l-143.58.93c-5.15.03-9.98,3.5-11.25,8.11-.15.86-.24,1.75-.24,2.68l-.1,54.64v12.7c0,.35.02.7.05,1.05.68,5.27,6.01,9.62,11.58,9.65l39.44.25Z"/>
  <path class="cls-7" d="M872.1,283.01c76.28-1.06,138.55-63.31,139.62-139.6C1012.79,67.36,953.9,4.81,879.3.02c-4.96-.32-9.15,3.65-9.15,8.62v46.69s24.44,0,24.44,0c8.07,0,14.61,6.54,14.61,14.61v90.19c0,34.63-28.07,62.7-62.7,62.7V84.82s0-29.49,0-29.49V12.46c0-5.74-5.41-9.88-10.98-8.48-61.53,15.42-107.1,71.08-107.1,137.4,0,78.9,64.51,142.74,143.67,141.64Z"/>
  <path class="cls-10" d="M3661.65,142.78c-1.04-74.64-61.72-135.7-136.35-137.19-71.36-1.42-130.79,50.88-140.61,119.21-.69,4.81,2.85,9.21,7.7,9.52l66.48,4.25c9.04.58,17.28-4.7,21-12.96,7.59-16.86,24.89-28.4,44.77-27.5,23.57,1.07,42.96,20.09,44.43,43.64,1.7,27.15-19.82,49.71-46.61,49.71-19,0-35.34-11.35-42.64-27.63-3.7-8.26-12.02-13.44-21.05-12.85l-66.39,4.34c-4.85.32-8.38,4.71-7.69,9.52,9.73,67.37,67.7,119.13,137.76,119.13,77.54,0,140.27-63.4,139.18-141.18Z"/>
  <path class="cls-11" d="M3328.81,16.15l-96.43.2c-40.83.09-78.65,18.28-104.98,48.45-.41,1.26-1.05,2.46-1.95,3.54-19.43,23.25-29.7,51.35-30.57,79.71-.02.79-.05,1.58-.05,2.37,0,.12,0,.25,0,.37,0,.07,0,.14,0,.21,0,1.97.07,3.94.17,5.91,0,.12,0,.23.02.35.11,2.04.27,4.08.48,6.12.02.15.03.31.05.46,2.63,24.97,12.59,49.33,29.86,69.88.96,1.14,1.63,2.46,2.04,3.84,26.32,30.13,64.12,48.31,104.93,48.39l98.4.21,35.59-.17c6.89-.03,11.08-5.38,11.09-12.29l.09-48.59v-17.54c0-5.76-5.33-10.46-11.06-10.5l-137.02-.93c-24.04-.16-41.4-23.6-40.86-45.31,0-.1,0-.19,0-.29,0-.3,0-.6,0-.9,0-.46.03-.92.06-1.37.01-.23.02-.45.04-.68.04-.58.09-1.15.16-1.73,0-.06.01-.13.02-.19.63-5.37,2.28-10.71,4.79-15.64.11-.21.21-.41.32-.62.2-.37.4-.74.61-1.11.28-.5.57-.99.86-1.47.06-.09.11-.19.17-.28,2.54-4.08,5.7-7.79,9.37-10.91h-.08c6.7-5.73,15.11-9.4,24.56-9.47l137.02-.93c4.92-.03,9.52-3.5,10.74-8.11.15-.86.23-1.75.23-2.68l.1-54.64v-12.7c0-.35-.02-.7-.05-1.05-.65-5.27-5.74-9.62-11.05-9.65l-37.64-.25Z"/>
  <path d="M2649.59,155.47c.09,43.46,20.7,83.52,54.43,109.92,13.77,10.78,29.01,18.33,44.85,22.8v.06c2.99.84,6,1.55,9.02,2.16.2.04.39.08.59.12,1.98.39,3.97.75,5.97,1.05.14.02.28.04.42.06,1.85.27,3.7.5,5.56.69.29.03.57.06.86.09,1.88.18,3.75.31,5.63.41.38.02.75.04,1.13.05,1.92.08,3.84.13,5.75.13.15,0,.3,0,.45,0,1.97,0,3.94-.07,5.91-.17.12,0,.23,0,.35-.02,2.04-.11,4.08-.27,6.12-.48.15-.02.31-.03.46-.05,24.97-2.63,49.33-12.59,69.88-29.86,3.92-3.3,9.77-3.48,13.88-.05,47.2,39.45,114.38,41.2,163.18,3,33.73-26.4,54.34-66.46,54.43-109.92l.28-134.12c.01-6.08-4.95-11.05-11.03-11.05h-67.63c-5.76,0-10.46,5.33-10.5,11.07l-.93,137.02c-.16,24.21-23.93,41.65-45.77,40.85-21.29-.78-42.88-18.44-42.99-42.05l-.65-135.71c-.03-6.89-5.38-11.08-12.29-11.09l-67.24-.12c-5.77-.01-10.77,5.43-10.8,11.12l-.91,136.59c-.11,16.52-11.03,29.92-24.85,36.62-.49.24-.99.47-1.49.69-.25.11-.51.23-.76.34-.3.13-.6.24-.9.36-3.02,1.21-6.15,2.11-9.3,2.65-.01,0-.03,0-.04,0-.62.11-1.24.2-1.87.27-.12.01-.23.03-.35.04-.54.06-1.08.12-1.63.16-.24.02-.48.03-.72.05-.44.03-.88.05-1.32.06-.32,0-.65,0-.97.01-.3,0-.6,0-.9,0-.46,0-.92-.03-1.37-.06-.23-.01-.45-.02-.68-.04-.58-.04-1.15-.09-1.73-.16-.06,0-.13-.01-.19-.02-5.37-.63-10.71-2.28-15.64-4.79-.21-.11-.41-.21-.62-.32-.37-.2-.74-.4-1.11-.61-.5-.28-.99-.57-1.47-.86-.09-.06-.19-.11-.28-.17-4.08-2.54-7.79-5.7-10.91-9.37v.08c-5.73-6.7-9.4-15.11-9.47-24.56l-.93-137.02c-.04-5.74-4.74-11.06-10.5-11.06h-67.63c-6.08,0-11.04,4.97-11.03,11.04l.28,134.12Z"/>
  <path class="cls-5" d="M2093.29,286.67l101.06-.2c42.79-.09,82.42-18.28,110.01-48.45.43-1.26,1.1-2.46,2.04-3.54,20.37-23.25,31.12-51.35,32.03-79.71.02-.79.06-1.58.06-2.37,0-.12,0-.25,0-.37,0-.07,0-.14,0-.21-.01-1.97-.07-3.94-.17-5.91,0-.12,0-.23-.02-.35-.11-2.04-.29-4.08-.5-6.12-.02-.15-.03-.31-.05-.46-2.76-24.97-13.19-49.33-31.29-69.88-1.01-1.14-1.7-2.46-2.14-3.84-27.58-30.13-67.2-48.31-109.96-48.39l-103.12-.21-37.3.17c-7.22.03-11.61,5.38-11.62,12.29l-.09,48.59v17.54c0,5.76,5.58,10.46,11.59,10.5l143.58.93c25.2.16,43.38,23.6,42.81,45.31,0,.1,0,.19,0,.29,0,.3,0,.6,0,.9-.01.46-.03.92-.06,1.37-.01.23-.02.45-.04.68-.04.58-.1,1.15-.16,1.73,0,.06-.02.13-.02.19-.66,5.37-2.39,10.71-5.02,15.64-.11.21-.22.41-.34.62-.21.37-.42.74-.63,1.11-.29.5-.59.99-.9,1.47-.06.09-.12.19-.18.28-2.66,4.08-5.97,7.79-9.82,10.91h.09c-7.02,5.73-15.83,9.4-25.73,9.47l-143.58.93c-5.15.03-9.98,3.5-11.25,8.11-.15.86-.24,1.75-.24,2.68l-.1,54.64v12.7c0,.35.02.7.05,1.05.68,5.27,6.01,9.62,11.58,9.65l39.44.25Z"/>
  <path class="cls-7" d="M2495.92,286.07c76.28-1.06,138.55-63.31,139.62-139.6,1.07-76.06-57.81-138.6-132.41-143.39-4.96-.32-9.15,3.65-9.15,8.62v46.69s24.44,0,24.44,0c8.07,0,14.61,6.54,14.61,14.61v90.19c0,34.63-28.07,62.7-62.7,62.7V87.88s0-29.49,0-29.49V15.52c0-5.74-5.41-9.88-10.98-8.48-61.53,15.42-107.1,71.08-107.1,137.4,0,78.9,64.51,142.74,143.67,141.64Z"/>
  <path class="cls-5" d="M3710.54,294.12l101.06-.2c42.79-.09,82.42-18.28,110.01-48.45.43-1.26,1.1-2.46,2.04-3.54,20.37-23.25,31.12-51.35,32.03-79.71.02-.79.06-1.58.06-2.37,0-.12,0-.25,0-.37,0-.07,0-.14,0-.21-.01-1.97-.07-3.94-.17-5.91,0-.12,0-.23-.02-.35-.11-2.04-.29-4.08-.5-6.12-.02-.15-.03-.31-.05-.46-2.76-24.97-13.19-49.33-31.29-69.88-1.01-1.14-1.7-2.46-2.14-3.84-27.58-30.13-67.2-48.31-109.96-48.39l-103.12-.21-37.3.17c-7.22.03-11.61,5.38-11.62,12.29l-.09,48.59v17.54c0,5.76,5.58,10.46,11.59,10.5l143.58.93c25.2.16,43.38,23.6,42.81,45.31,0,.1,0,.19,0,.29,0,.3,0,.6,0,.9-.01.46-.03.92-.06,1.37-.01.23-.02.45-.04.68-.04.58-.1,1.15-.16,1.73,0,.06-.02.13-.02.19-.66,5.37-2.39,10.71-5.02,15.64-.11.21-.22.41-.34.62-.21.37-.42.74-.63,1.11-.29.5-.59.99-.9,1.47-.06.09-.12.19-.18.28-2.66,4.08-5.97,7.79-9.82,10.91h.09c-7.02,5.73-15.83,9.4-25.73,9.47l-143.58.93c-5.15.03-9.98,3.5-11.25,8.11-.15.86-.24,1.75-.24,2.68l-.1,54.64v12.7c0,.35.02.7.05,1.05.68,5.27,6.01,9.62,11.58,9.65l39.44.25Z"/>
  <path class="cls-7" d="M4100.74,286.27c76.28-1.06,138.55-63.31,139.62-139.6,1.07-76.06-57.81-138.6-132.41-143.39-4.96-.32-9.15,3.65-9.15,8.62v46.69s24.44,0,24.44,0c8.07,0,14.61,6.54,14.61,14.61v90.19c0,34.63-28.07,62.7-62.7,62.7V88.08s0-29.49,0-29.49V15.71c0-5.74-5.41-9.88-10.98-8.48-61.53,15.42-107.1,71.08-107.1,137.4,0,78.9,64.51,142.74,143.67,141.64Z"/>
  <path class="cls-11" d="M3522.5,2382.06v331.09c0,2.97,2.4,5.37,5.37,5.37h78.28c2.97,0,5.37-2.4,5.37-5.37v-11.27c18.98,10.64,40.85,16.73,64.15,16.73,72.57,0,131.39-58.83,131.39-131.39,0-72.57-58.83-131.39-131.39-131.39-23.3,0-45.17,6.09-64.15,16.73v-132.6c0-2.97-2.4-5.37-5.37-5.37h-36.19c-26.21,0-47.46,21.25-47.46,47.46ZM3720.76,2587.22c0,24.9-20.19,45.09-45.09,45.09-24.9,0-45.09-20.19-45.09-45.09,0-24.9,20.19-45.09,45.09-45.09,24.9,0,45.09,20.19,45.09,45.09Z"/>
</svg>